<?xml version="1.0" encoding="utf-8"?>
<!-- Generator: Adobe Illustrator 24.0.0, SVG Export Plug-In . SVG Version: 6.00 Build 0)  -->
<svg version="1.1" id="Calque_1" xmlns="http://www.w3.org/2000/svg" xmlns:xlink="http://www.w3.org/1999/xlink" x="0px" y="0px"
	 viewBox="0 0 1366 768" style="enable-background:new 0 0 1366 768;" xml:space="preserve">
<style type="text/css">
	.st0{fill:none;stroke:#FFFFFF;stroke-miterlimit:10;}
</style>
<polyline class="st0" points="810.91,548.21 782.04,551.32 782.33,479.98 812.05,486.19 810.91,548.21 830.35,547.97 830.35,482.79 
	830.35,426.64 619.41,386.32 409.04,445.49 409.04,551.32 537.66,558.14 538.8,498.59 619.69,492.27 "/>
<polyline class="st0" points="782.04,551.32 717.73,555.04 717.73,495.56 619.69,492.27 619.41,386.32 "/>
<polyline class="st0" points="717.73,555.04 712.34,555.04 712.34,497.67 581.15,495.28 "/>
<polyline class="st0" points="712.34,555.04 696.01,553.8 598.83,560 537.66,558.14 "/>
<polyline class="st0" points="812.05,486.19 830.35,482.79 782.33,479.98 "/>
<polyline class="st0" points="830.35,482.79 865.66,486.19 865.66,423.16 830.35,426.64 "/>
<polyline class="st0" points="865.66,423.16 938.39,412.37 938.39,270.61 825.2,199 490.21,351.59 363.81,327.71 321,360.27 
	321,512.87 409.04,511.62 "/>
<polyline class="st0" points="409.04,508.52 363.87,508.52 321,512.87 321,360.27 363.81,327.71 363.87,508.52 "/>
<line class="st0" x1="490.21" y1="351.59" x2="490.21" y2="422.66"/>
<polyline class="st0" points="717.73,405.12 825.77,381.98 938.39,412.37 "/>
<line class="st0" x1="825.2" y1="199" x2="825.77" y2="381.98"/>
<polygon class="st0" points="829.2,208.3 935.53,275.29 935.53,403.42 829.2,371.45 "/>
<polyline class="st0" points="830.35,547.97 894.37,545.73 894.37,508.72 1035,512.24 1035,412.37 938.39,376.39 "/>
<polyline class="st0" points="830.35,453.95 861.22,451.45 861.22,485.76 "/>
<polygon class="st0" points="948.11,394.39 958.4,398.11 958.4,426.64 948.11,424.57 "/>
<polyline class="st0" points="941.25,407.54 941.25,437.19 930.96,435.03 930.96,413.62 "/>
<polygon class="st0" points="970.97,415.11 981.26,418.83 981.26,447.36 970.97,445.29 "/>
<polygon class="st0" points="984.69,406.43 994.41,409.94 994.41,436.89 984.69,434.93 "/>
<polygon class="st0" points="1008.7,427.51 1017.28,430.62 1017.28,454.39 1008.7,452.67 "/>
<polyline class="st0" points="1035,464.85 1029.28,463.18 1029.28,487.61 1035,488.54 "/>
<path class="st0" d="M941.25,407.85"/>
<line class="st0" x1="941.25" y1="407.85" x2="938.39" y2="406.81"/>
<line class="st0" x1="829.2" y1="211.14" x2="935.53" y2="277.08"/>
<polyline class="st0" points="844.75,376.12 844.75,220.79 837.02,215.99 837.02,373.8 "/>
<line class="st0" x1="852.51" y1="225.6" x2="852.51" y2="378.46"/>
<line class="st0" x1="860.18" y1="230.35" x2="860.18" y2="380.74"/>
<line class="st0" x1="868.32" y1="235.4" x2="868.32" y2="383.21"/>
<line class="st0" x1="875.34" y1="239.75" x2="875.34" y2="385.25"/>
<line class="st0" x1="881.46" y1="243.55" x2="881.46" y2="387.16"/>
<line class="st0" x1="888.74" y1="248.06" x2="888.74" y2="389.35"/>
<line class="st0" x1="894.32" y1="251.52" x2="894.32" y2="391.03"/>
<line class="st0" x1="901.07" y1="255.71" x2="901.07" y2="393.09"/>
<line class="st0" x1="906.67" y1="259.18" x2="906.67" y2="394.74"/>
<line class="st0" x1="912.91" y1="263.05" x2="912.91" y2="396.49"/>
<line class="st0" x1="918.2" y1="266.33" x2="918.2" y2="398.21"/>
<line class="st0" x1="924.14" y1="270.01" x2="924.14" y2="399.99"/>
<line class="st0" x1="930.16" y1="273.74" x2="930.16" y2="401.8"/>
<polygon class="st0" points="913.81,441.54 924.1,445.33 924.1,474.4 913.81,472.29 "/>
<polygon class="st0" points="935.53,460.15 945.82,463.87 945.82,492.4 935.53,490.33 "/>
<polygon class="st0" points="954.97,447.62 965.26,451.35 965.26,479.88 954.97,477.81 "/>
<polygon class="st0" points="980.12,466.23 990.41,469.61 990.41,495.49 980.12,493.61 "/>
<polygon class="st0" points="997.27,456.31 1005.85,459.41 1005.85,483.19 997.27,481.46 "/>
<polygon class="st0" points="1015.56,473.68 1023,476.36 1023,496.97 1015.56,495.48 "/>
</svg>
