<?xml version="1.0" encoding="utf-8"?>
<!-- Generator: Adobe Illustrator 24.0.0, SVG Export Plug-In . SVG Version: 6.00 Build 0)  -->
<svg version="1.1" id="Bâtiment" xmlns="http://www.w3.org/2000/svg" xmlns:xlink="http://www.w3.org/1999/xlink" x="0px" y="0px"
	 viewBox="0 0 1366 768" style="enable-background:new 0 0 1366 768;" xml:space="preserve">
<style type="text/css">
	.st0{fill:none;stroke:#FFFFFF;stroke-width:0.5;stroke-miterlimit:10;}
	.st1{fill:none;stroke:#FFFFFF;stroke-miterlimit:10;}
	.st2{fill:#FFFFFF;stroke:#000000;stroke-width:0.25;stroke-miterlimit:10;}
	.st3{fill:none;stroke:#FFFFFF;stroke-width:0.25;stroke-miterlimit:10;}
	.st4{fill:none;stroke:#FFFFFF;stroke-width:0.75;stroke-miterlimit:10;}
</style>
<path class="st0" d="M694.06,249"/>
<path class="st0" d="M694.63,265.69h0.72c0,0,0-2.57-1.28-3.85c0-3.85,0-5.14,0-5.14h1.28v-2.57h-1.28v1.28h-1.28v-1.28v-2.57
	l-1.28,1.28v1.28v1.28h-1.28v-1.28h-1.28v2.57h1.28v5.14c0,0-1.28,1.28-1.28,3.85c2.57,0,2.57,0,2.57,0v-2.57h1.28v2.57h1.93"/>
<polyline class="st1" points="465.55,593.05 469.4,551.97 588.79,551.97 588.79,568.66 798.05,568.66 798.05,551.97 878.93,551.97 
	921.29,551.97 923.86,593.05 "/>
<ellipse class="st1" cx="692.14" cy="160.42" rx="7.06" ry="6.42"/>
<polyline class="st1" points="622.98,569.74 625.38,461.47 672.88,461.47 672.88,569.43 "/>
<polyline class="st1" points="672.88,461.47 713.96,461.47 715.24,569.3 "/>
<polyline class="st1" points="712.68,461.47 762.74,461.47 765.03,568.86 "/>
<line class="st1" x1="616.79" y1="461.47" x2="625.38" y2="461.47"/>
<line class="st1" x1="761.93" y1="461.47" x2="766.75" y2="461.47"/>
<line class="st1" x1="617.29" y1="438.78" x2="766.22" y2="437.79"/>
<g>
	<path class="st1" d="M637.21,438.78c0,0,3.58,3.43,3.58,4.72s1.15,17.97,1.15,17.97"/>
	<path class="st1" d="M650.92,438.78c0,0-3.58,3.43-3.58,4.72s-1.15,17.97-1.15,17.97"/>
</g>
<g>
	<path class="st1" d="M690.81,460.86c0,0-1.15-16.69-1.15-17.97s-3.58-4.72-3.58-4.72"/>
	<path class="st1" d="M699.8,438.16c0,0-3.58,3.43-3.58,4.72s-1.15,17.97-1.15,17.97"/>
</g>
<g>
	<path class="st1" d="M736.28,438.29c0,0,3.58,3.43,3.58,4.72s1.15,17.97,1.15,17.97"/>
	<path class="st1" d="M750,438.29c0,0-3.58,3.43-3.58,4.72s-1.15,17.97-1.15,17.97"/>
</g>
<ellipse class="st1" cx="692.14" cy="259.27" rx="9.63" ry="15.41"/>
<path class="st0" d="M692.61,251.74c0,0,2.1-0.81,2.1,0.47c1.28-1.28,1.28-2.57,0-2.57C693.42,249.64,692.61,251.74,692.61,251.74z"
	/>
<path class="st1" d="M693.52,438.27"/>
<path class="st1" d="M684,438.34"/>
<path class="st1" d="M684.11,306.95"/>
<path class="st1" d="M675.02,438.4"/>
<path class="st1" d="M674.39,308.68"/>
<path class="st1" d="M665.07,438.46"/>
<path class="st1" d="M665.38,311.63"/>
<path class="st1" d="M655.86,438.52"/>
<path class="st1" d="M656.14,316.14"/>
<path class="st1" d="M645.3,438.59"/>
<path class="st1" d="M647.34,322.1"/>
<path class="st1" d="M637.75,330.93"/>
<polyline class="st1" points="624.75,490.08 672.88,490.08 714.3,490.08 "/>
<polyline class="st1" points="764.67,551.97 715.04,552.62 672.88,552.62 623.36,552.62 "/>
<line class="st1" x1="663.41" y1="569.49" x2="664.53" y2="461.47"/>
<line class="st1" x1="645.28" y1="490.08" x2="644.39" y2="552.62"/>
<line class="st1" x1="694.06" y1="490.08" x2="694.06" y2="552.62"/>
<line class="st1" x1="743.01" y1="489.69" x2="744.22" y2="552.24"/>
<line class="st1" x1="722.95" y1="552.51" x2="722.51" y2="461.47"/>
<g>
	<g>
		<path class="st2" d="M665.18,485.86c0,0,0,0-1.28,0c-1.28,0-0.64,1.93-0.64,1.93l-3.85,5.14c0,0,3.21-0.64,1.93,0.64
			c0,1.28,0,5.14,0,5.14h3.85"/>
		<path class="st2" d="M663.89,485.86c0,0,0,0,1.28,0c1.28,0,0.64,1.93,0.64,1.93l3.85,5.14c0,0-3.21-0.64-1.93,0.64
			c0,1.28,0,5.14,0,5.14h-3.85"/>
	</g>
	<rect x="663.89" y="493.56" class="st2" width="1.28" height="3.85"/>
	<path class="st2" d="M661.53,492.89c0,0,3.23-0.67,6.01,0"/>
</g>
<line class="st1" x1="713.6" y1="490.08" x2="763.35" y2="490.08"/>
<g>
	<g>
		<path class="st2" d="M722.95,484.57c0,0,0,0-1.28,0c-1.28,0-0.64,1.93-0.64,1.93l-3.85,5.14c0,0,3.21-0.64,1.93,0.64
			c0,1.28,0,5.14,0,5.14h3.85"/>
		<path class="st2" d="M721.66,484.57c0,0,0,0,1.28,0s0.64,1.93,0.64,1.93l3.85,5.14c0,0-3.21-0.64-1.93,0.64c0,1.28,0,5.14,0,5.14
			h-3.85"/>
	</g>
	<rect x="721.66" y="492.28" class="st2" width="1.28" height="3.85"/>
	<path class="st2" d="M719.3,491.61c0,0,3.23-0.67,6.01,0"/>
</g>
<path class="st1" d="M470.04,551.33l15.41-206.69c0,0-3.85-2.57-3.85-3.85c1.28,0,5.14,0,5.14,0s1.28-8.99,0-10.27
	s-14.12-15.41-14.12-15.41v-3.85l-6.42-6.42h23.11v-6.42h2.57l-2.57-3.85h6.42l-5.14-6.42h24.39l-3.85-6.42h3.85v-2.57
	c0,0,28.24-3.85,28.24-5.14s0-2.57,0-2.57h1.28v-3.85h12.84c0,0-1.28-6.42-5.14-7.7c2.57-1.28,3.85-5.14,3.85-5.14s0-2.57,5.14-2.57
	c1.28-3.85,6.42-16.69,6.42-16.69s0-5.14,3.85-5.14c3.85,0,3.85,3.85,2.57,5.14c0,7.7,1.28,8.99,1.28,8.99s1.93-48.14,99.49-45.57
	v-3.85h3.85c0,0,0-1.28,1.28-1.28c0-3.85,0-15.41,0-15.41l2.57-2.57c0,0,6.42-1.28,5.14-8.99c3.85,0,5.14,0,5.14,0"/>
<path class="st1" d="M682.06,176.27c0,0,8.15,2.12,10.72,0.83"/>
<path class="st1" d="M556.62,265.23l19.33,0.46v-2.57c0,0,3.85,0,5.14-2.57c0-2.57,0-5.14-3.85-7.7c-1.28-3.85-2.17-8.77-2.17-8.77"
	/>
<path class="st1" d="M614.37,569.79l4.59-205.89c0,0,11.55-60.34,73.18-60.34"/>
<path class="st1" d="M486.73,340.79c0,0,21.82-1.28,23.11-6.42c0-3.85-2.57-7.7-2.57-7.7h21.82c0,0,0-3.85-1.28-5.14
	c6.42,0,57.77,0,57.77,0s26.32-55.84,96.93-63.55"/>
<path class="st1" d="M484.81,353.14c0,0,19.89,0.49,25.03-4.64c0-3.85,0-8.99,0-8.99h14.12c0,0,5.14-1.28,0-6.42
	c0-1.28,0-1.28,0-1.28h5.14h23.11h41.08c0,0,32.31-60.9,92.54-60.9"/>
<path class="st1" d="M524.33,339.38c0,0-2.94,7.83,4.76,9.11c2.57,0-7.7,187.43-7.7,187.43s-3.85,1.28-3.85,3.85
	s1.28,3.85,1.28,3.85s-3.85,0-3.85,2.57c-5.14,0-5.14,0-5.14,0v5.78"/>
<path class="st1" d="M547.78,551.97l-0.07-5.14c0,0-1.28-2.57-3.85-2.57c2.57-3.85-1.28-7.7-1.28-7.7s5.14-172.03,6.42-188.72
	c2.57-1.28,5.14-6.42,2.57-8.99s1.28-5.14,1.28-5.14v-1.93"/>
<path class="st1" d="M565.67,331.8c0,0,0.66,5.14,3.22,6.42c-2.57,2.57-3.85,11.55,5.14,8.99c-1.28,14.12-8.99,190-8.99,190
	s-5.14,2.57-2.57,6.42c-2.57,1.28-2.57,2.57-2.57,3.85c-3.85,0-3.85,0-3.85,0v4.49"/>
<path class="st1" d="M593.02,331.8h4.11c0,0-0.64,5.78-3.21,5.78c3.85,7.7,0,11.55-5.14,10.27c0,23.11-1.93,189.36-1.93,189.36
	s3.85,3.85,1.28,6.42c2.57,1.28,2.57,3.85,2.57,3.85H592v5.14h-3.21"/>
<polyline class="st1" points="509.7,348.62 497.38,537.95 496.46,551.97 "/>
<line class="st1" x1="471.05" y1="537.73" x2="497.4" y2="537.63"/>
<line class="st1" x1="498.24" y1="524.66" x2="472.03" y2="524.66"/>
<line class="st1" x1="499.11" y1="511.3" x2="472.98" y2="511.91"/>
<path class="st1" d="M473.92,499.27c0,0,24.66,0.69,26.12-2.19"/>
<path class="st1" d="M474.88,486.46c0,0,24.06-0.01,25.98-1.91"/>
<path class="st1" d="M475.82,473.79c0,0,23.56,0.16,25.9-2.55"/>
<path class="st1" d="M476.75,461.35c0,0,24.23-0.37,25.77-2.37"/>
<path class="st1" d="M477.67,448.97c0,0,23.7,0.46,25.68-2.82"/>
<path class="st1" d="M478.58,436.76c0,0,23.14,0.38,25.59-3.18"/>
<path class="st1" d="M479.49,424.6c0,0,22.57,0.49,25.5-3.46"/>
<path class="st1" d="M480.36,412.84c0,0,23.34-0.18,25.44-4.35"/>
<path class="st1" d="M481.27,400.65c0,0,22.69-0.14,25.31-4"/>
<path class="st1" d="M482.15,388.81c0,0,19.52,0.51,25.21-4.18"/>
<path class="st1" d="M483.04,376.9c0,0,20.2-0.17,25.1-4.34"/>
<path class="st1" d="M483.89,365.5c0,0,20.87-0.54,25.01-4.6"/>
<path class="st3" d="M484.99,350.75c0,0,21,0.32,24.85-4.82"/>
<path class="st3" d="M485.02,347.15c0,0,21,0.32,24.85-4.82"/>
<line class="st1" x1="497.45" y1="536.88" x2="519.72" y2="536.72"/>
<line class="st1" x1="498.38" y1="522.59" x2="522.12" y2="522.47"/>
<line class="st1" x1="499.26" y1="509.01" x2="522.84" y2="508.78"/>
<line class="st1" x1="500.15" y1="495.35" x2="523.55" y2="495.35"/>
<line class="st1" x1="501.07" y1="481.28" x2="524.27" y2="481.28"/>
<line class="st1" x1="501.97" y1="467.46" x2="524.97" y2="467.46"/>
<line class="st1" x1="502.8" y1="454.67" x2="525.6" y2="454.67"/>
<line class="st1" x1="503.67" y1="441.31" x2="526.25" y2="441.31"/>
<line class="st1" x1="504.54" y1="427.91" x2="526.88" y2="427.91"/>
<line class="st1" x1="505.36" y1="415.37" x2="527.45" y2="415.37"/>
<line class="st1" x1="506.21" y1="402.28" x2="528.02" y2="402.28"/>
<line class="st1" x1="507.02" y1="389.88" x2="528.53" y2="389.88"/>
<line class="st1" x1="507.84" y1="377.31" x2="528.99" y2="377.31"/>
<line class="st1" x1="508.65" y1="364.76" x2="529.36" y2="364.94"/>
<line class="st1" x1="509.44" y1="352.71" x2="529.49" y2="352.39"/>
<polyline class="st1" points="543.42,537.63 564.19,537.73 587.33,537.73 614.47,537.85 "/>
<line class="st1" x1="542.98" y1="523.01" x2="565.67" y2="523.01"/>
<line class="st1" x1="543.42" y1="508.53" x2="566.31" y2="508.53"/>
<line class="st1" x1="543.83" y1="495.35" x2="566.89" y2="495.35"/>
<line class="st1" x1="544.27" y1="481.28" x2="567.52" y2="481.28"/>
<line class="st1" x1="544.68" y1="467.98" x2="568.12" y2="467.98"/>
<line class="st1" x1="545.1" y1="454.67" x2="568.73" y2="454.67"/>
<line class="st1" x1="545.53" y1="441.31" x2="569.34" y2="441.31"/>
<line class="st1" x1="545.97" y1="427.91" x2="569.95" y2="427.91"/>
<line class="st1" x1="546.38" y1="415.37" x2="570.53" y2="415.37"/>
<line class="st1" x1="546.82" y1="402.28" x2="571.15" y2="402.28"/>
<line class="st1" x1="547.26" y1="389.59" x2="571.75" y2="389.59"/>
<line class="st1" x1="547.73" y1="376.66" x2="572.39" y2="376.66"/>
<line class="st1" x1="548.2" y1="364.47" x2="573" y2="364.47"/>
<line class="st1" x1="548.72" y1="352.55" x2="573.67" y2="352.39"/>
<line class="st1" x1="592" y1="551.52" x2="614.78" y2="551.52"/>
<line class="st1" x1="587.28" y1="523.47" x2="615.4" y2="523.47"/>
<line class="st1" x1="587.7" y1="509.37" x2="615.71" y2="509.58"/>
<polyline class="st1" points="616.02,495.72 588.11,495.72 587.34,495.72 "/>
<polyline class="st1" points="616.33,481.71 588.52,481.71 587.49,481.71 "/>
<polyline class="st1" points="616.64,467.98 588.92,467.98 587.64,467.98 "/>
<polyline class="st1" points="617.03,454.41 589.31,454.42 587.79,454.42 "/>
<polyline class="st1" points="617.23,441.31 589.69,441.31 587.93,441.31 "/>
<polyline class="st1" points="617.53,427.91 590.06,427.91 588.08,427.91 "/>
<polyline class="st1" points="617.81,415.37 590.41,415.37 588.21,415.37 "/>
<polyline class="st1" points="618.11,401.84 590.77,401.84 588.35,401.84 "/>
<polyline class="st1" points="618.39,389.37 591.1,389.59 588.47,389.59 "/>
<polyline class="st1" points="618.68,376.66 591.42,376.66 588.79,376.66 "/>
<line class="st1" x1="588.79" y1="360.69" x2="618.95" y2="364.13"/>
<path class="st1" d="M594.73,339.22c0,0,27.44-61.98,98.04-61.98"/>
<line class="st1" x1="627.42" y1="341.83" x2="601" y2="328.17"/>
<polyline class="st1" points="610.76,315.21 633.88,331.74 633.96,335.27 "/>
<polyline class="st1" points="622.73,303.18 642.16,322.4 642.16,326.51 "/>
<polyline class="st1" points="636.23,293.15 651.78,314.79 651.78,318.86 "/>
<polyline class="st1" points="651.19,285.37 662.61,309.09 662.82,312.72 "/>
<polyline class="st1" points="667.98,279.98 674.39,305.41 674.39,308.68 "/>
<polyline class="st1" points="684.11,277.56 686.12,303.76 686.36,306.77 "/>
<path class="st1" d="M595.47,343.73l26.75,9.42c27.01-51.19,70.56-46.38,70.56-46.38"/>
<path class="st1" d="M627.38,438.71l2.49-71.6c0,0,7.82-50.06,62.96-50.06v121.48"/>
<line class="st1" x1="637.75" y1="346.61" x2="635.6" y2="438.66"/>
<line class="st1" x1="647.15" y1="334.36" x2="645.28" y2="439"/>
<line class="st1" x1="656.3" y1="326.93" x2="653.95" y2="438.52"/>
<line class="st1" x1="665.48" y1="322.1" x2="664.53" y2="439"/>
<line class="st1" x1="674.39" y1="319.18" x2="674.8" y2="439"/>
<line class="st1" x1="684.11" y1="317.49" x2="683.79" y2="437.72"/>
<line class="st1" x1="692.78" y1="330.93" x2="650.3" y2="331.43"/>
<line class="st1" x1="692.84" y1="345.98" x2="638.13" y2="345.98"/>
<line class="st1" x1="692.84" y1="361.62" x2="631.21" y2="361.62"/>
<line class="st1" x1="692.84" y1="377.6" x2="629.51" y2="377.6"/>
<line class="st1" x1="692.84" y1="394.38" x2="628.88" y2="395.7"/>
<line class="st1" x1="692.84" y1="412.45" x2="628.26" y2="413.42"/>
<line class="st1" x1="692.84" y1="429.31" x2="627.69" y2="429.8"/>
<line class="st3" x1="509.83" y1="334.03" x2="524.83" y2="334.03"/>
<polyline class="st3" points="526.24,337.01 509.84,336.94 509.7,334.74 "/>
<line class="st3" x1="509.84" y1="336.94" x2="509.84" y2="340.24"/>
<path class="st3" d="M529.09,326.67v2.57h59.05c0,0,24.86-59.05,95.24-63.55"/>
<path class="st1" d="M472.61,314.44c0,0,45.57,2.6,25.03-15.37c23.11,0,23.11,0,23.11,0l-3.85-6.42h50.07
	c0,0,42.36-62.91,125.81-62.91"/>
<path class="st1" d="M481.81,325.21c0,0,29.95,2.1,29.95-12.02l-2.57-2.57h23.11v-2.57l-3.85-3.85h44.93
	c0,0,39.8-64.19,119.39-64.19"/>
<path class="st1" d="M514.97,281.56l46.86-0.47c0,0,43.65-61.62,130.95-61.62"/>
<path class="st3" d="M589.43,331.8c0,0,24.86-59.05,95.24-63.55"/>
<line class="st1" x1="521.39" y1="535.93" x2="542.59" y2="535.93"/>
<line class="st1" x1="514.75" y1="546.2" x2="547.4" y2="546.34"/>
<line class="st1" x1="544.72" y1="541.05" x2="517.68" y2="541.22"/>
<line class="st1" x1="559.69" y1="547.48" x2="591.13" y2="547.48"/>
<line class="st1" x1="561.93" y1="542.53" x2="588.91" y2="542.39"/>
<path class="st4" d="M576.93,251.89c0,0,6.72-55.53,115.84-51.68"/>
<path class="st1" d="M914.36,551.33l-15.41-206.69c0,0,3.85-2.57,3.85-3.85c-1.28,0-5.14,0-5.14,0s-1.28-8.99,0-10.27
	c1.28-1.28,14.12-15.41,14.12-15.41v-3.85l6.42-6.42H895.1v-6.42h-2.57l2.57-3.85h-6.42l5.14-6.42h-24.39l3.85-6.42h-3.85v-2.57
	c0,0-28.24-3.85-28.24-5.14s0-2.57,0-2.57h-1.28v-3.85h-12.84c0,0,1.28-6.42,5.14-7.7c-2.57-1.28-3.85-5.14-3.85-5.14
	s0-2.57-5.14-2.57c-1.28-3.85-6.42-16.69-6.42-16.69s0-5.14-3.85-5.14c-3.85,0-3.85,3.85-2.57,5.14c0,7.7-1.28,8.99-1.28,8.99
	s-1.93-48.14-99.49-45.57v-3.85h-3.85c0,0,0-1.28-1.28-1.28c0-3.85,0-15.41,0-15.41l-2.57-2.57c0,0-6.42-1.28-5.14-8.99
	c-3.85,0-5.14,0-5.14,0"/>
<path class="st1" d="M702.34,176.27c0,0-8.15,2.12-10.72,0.83"/>
<path class="st1" d="M827.78,265.23l-19.33,0.46v-2.57c0,0-3.85,0-5.14-2.57c0-2.57,0-5.14,3.85-7.7c1.28-3.85,2.17-8.77,2.17-8.77"
	/>
<path class="st1" d="M770.03,569.79l-4.59-205.89c0,0-11.55-60.34-73.18-60.34"/>
<path class="st1" d="M897.67,340.79c0,0-21.82-1.28-23.11-6.42c0-3.85,2.57-7.7,2.57-7.7h-21.82c0,0,0-3.85,1.28-5.14
	c-6.42,0-57.77,0-57.77,0s-26.32-55.84-96.93-63.55"/>
<path class="st1" d="M899.59,353.14c0,0-19.89,0.49-25.03-4.64c0-3.85,0-8.99,0-8.99h-14.12c0,0-5.14-1.28,0-6.42
	c0-1.28,0-1.28,0-1.28h-5.14H832.2h-41.08c0,0-32.31-60.9-92.54-60.9"/>
<path class="st1" d="M860.07,339.38c0,0,2.94,7.83-4.76,9.11c-2.57,0,7.7,187.43,7.7,187.43s3.85,1.28,3.85,3.85
	s-1.28,3.85-1.28,3.85s3.85,0,3.85,2.57c5.14,0,5.14,0,5.14,0v5.78"/>
<path class="st1" d="M836.63,551.97l0.07-5.14c0,0,1.28-2.57,3.85-2.57c-2.57-3.85,1.28-7.7,1.28-7.7s-5.14-172.03-6.42-188.72
	c-2.57-1.28-5.14-6.42-2.57-8.99s-1.28-5.14-1.28-5.14v-1.93"/>
<path class="st1" d="M818.73,331.8c0,0-0.66,5.14-3.22,6.42c2.57,2.57,3.85,11.55-5.14,8.99c1.28,14.12,8.99,190,8.99,190
	s5.14,2.57,2.57,6.42c2.57,1.28,2.57,2.57,2.57,3.85c3.85,0,3.85,0,3.85,0v4.49"/>
<path class="st1" d="M791.38,331.8h-4.11c0,0,0.64,5.78,3.21,5.78c-3.85,7.7,0,11.55,5.14,10.27c0,23.11,1.93,189.36,1.93,189.36
	s-3.85,3.85-1.28,6.42c-2.57,1.28-2.57,3.85-2.57,3.85h-1.28v5.14h3.21h2.44"/>
<polyline class="st1" points="874.7,348.62 887.02,537.95 887.94,551.97 "/>
<line class="st1" x1="913.35" y1="537.73" x2="887" y2="537.63"/>
<line class="st1" x1="886.16" y1="524.66" x2="912.37" y2="524.66"/>
<line class="st1" x1="885.29" y1="511.3" x2="911.42" y2="511.91"/>
<path class="st1" d="M910.48,499.27c0,0-24.66,0.69-26.12-2.19"/>
<path class="st1" d="M909.52,486.46c0,0-24.06-0.01-25.98-1.91"/>
<path class="st1" d="M908.58,473.79c0,0-23.56,0.16-25.9-2.55"/>
<path class="st1" d="M907.65,461.35c0,0-24.23-0.37-25.77-2.37"/>
<path class="st1" d="M906.73,448.97c0,0-23.7,0.46-25.68-2.82"/>
<path class="st1" d="M905.82,436.76c0,0-23.14,0.38-25.59-3.18"/>
<path class="st1" d="M904.91,424.6c0,0-22.57,0.49-25.5-3.46"/>
<path class="st1" d="M904.04,412.84c0,0-23.34-0.18-25.44-4.35"/>
<path class="st1" d="M903.13,400.65c0,0-22.69-0.14-25.31-4"/>
<path class="st1" d="M902.25,388.81c0,0-19.52,0.51-25.21-4.18"/>
<path class="st1" d="M901.36,376.9c0,0-20.2-0.17-25.1-4.34"/>
<path class="st1" d="M900.51,365.5c0,0-20.87-0.54-25.01-4.6"/>
<path class="st3" d="M899.41,350.75c0,0-21,0.32-24.85-4.82"/>
<path class="st3" d="M899.38,347.15c0,0-21,0.32-24.85-4.82"/>
<line class="st1" x1="886.95" y1="536.88" x2="864.68" y2="536.72"/>
<line class="st1" x1="886.02" y1="522.59" x2="862.28" y2="522.47"/>
<line class="st1" x1="885.14" y1="509.01" x2="861.56" y2="508.78"/>
<line class="st1" x1="884.25" y1="495.35" x2="860.85" y2="495.35"/>
<line class="st1" x1="883.33" y1="481.28" x2="860.13" y2="481.28"/>
<line class="st1" x1="882.43" y1="467.46" x2="859.43" y2="467.46"/>
<line class="st1" x1="881.6" y1="454.67" x2="858.8" y2="454.67"/>
<line class="st1" x1="880.73" y1="441.31" x2="858.15" y2="441.31"/>
<line class="st1" x1="879.86" y1="427.91" x2="857.52" y2="427.91"/>
<line class="st1" x1="879.04" y1="415.37" x2="856.95" y2="415.37"/>
<line class="st1" x1="878.19" y1="402.28" x2="856.38" y2="402.28"/>
<line class="st1" x1="877.38" y1="389.88" x2="855.87" y2="389.88"/>
<line class="st1" x1="876.56" y1="377.31" x2="855.41" y2="377.31"/>
<line class="st1" x1="875.75" y1="364.76" x2="855.04" y2="364.94"/>
<line class="st1" x1="874.96" y1="352.71" x2="854.91" y2="352.39"/>
<polyline class="st1" points="840.98,537.63 820.21,537.73 797.07,537.73 769.93,537.85 "/>
<line class="st1" x1="841.42" y1="523.01" x2="818.73" y2="523.01"/>
<line class="st1" x1="840.98" y1="508.53" x2="818.09" y2="508.53"/>
<line class="st1" x1="840.57" y1="495.35" x2="817.51" y2="495.35"/>
<line class="st1" x1="840.13" y1="481.28" x2="816.88" y2="481.28"/>
<line class="st1" x1="839.72" y1="467.98" x2="816.28" y2="467.98"/>
<line class="st1" x1="839.3" y1="454.67" x2="815.67" y2="454.67"/>
<line class="st1" x1="838.87" y1="441.31" x2="815.07" y2="441.31"/>
<line class="st1" x1="838.43" y1="427.91" x2="814.45" y2="427.91"/>
<line class="st1" x1="838.02" y1="415.37" x2="813.87" y2="415.37"/>
<line class="st1" x1="837.58" y1="402.28" x2="813.25" y2="402.28"/>
<line class="st1" x1="837.14" y1="389.59" x2="812.65" y2="389.59"/>
<line class="st1" x1="836.67" y1="376.66" x2="812.01" y2="376.66"/>
<line class="st1" x1="836.2" y1="364.47" x2="811.4" y2="364.47"/>
<line class="st1" x1="835.68" y1="352.55" x2="810.73" y2="352.39"/>
<line class="st1" x1="792.4" y1="551.52" x2="769.62" y2="551.52"/>
<line class="st1" x1="797.12" y1="523.47" x2="769" y2="523.47"/>
<line class="st1" x1="796.7" y1="509.37" x2="768.69" y2="509.58"/>
<polyline class="st1" points="768.38,495.72 796.29,495.72 797.06,495.72 "/>
<polyline class="st1" points="768.07,481.71 795.88,481.71 796.91,481.71 "/>
<polyline class="st1" points="767.76,467.98 795.48,467.98 796.76,467.98 "/>
<polyline class="st1" points="767.37,454.41 795.09,454.42 796.61,454.42 "/>
<polyline class="st1" points="767.17,441.31 794.71,441.31 796.47,441.31 "/>
<polyline class="st1" points="766.87,427.91 794.34,427.91 796.32,427.91 "/>
<polyline class="st1" points="766.59,415.37 793.99,415.37 796.19,415.37 "/>
<polyline class="st1" points="766.29,401.84 793.63,401.84 796.05,401.84 "/>
<polyline class="st1" points="766.01,389.37 793.31,389.59 795.93,389.59 "/>
<polyline class="st1" points="765.73,376.66 792.98,376.66 795.81,376.66 "/>
<line class="st1" x1="795.48" y1="360.69" x2="765.45" y2="364.13"/>
<path class="st1" d="M789.67,339.22c0,0-27.44-61.98-98.04-61.98"/>
<line class="st1" x1="756.98" y1="341.83" x2="783.4" y2="328.17"/>
<polyline class="st1" points="773.64,315.21 750.52,331.74 750.44,335.27 "/>
<polyline class="st1" points="761.67,303.18 742.24,322.4 742.24,326.51 "/>
<polyline class="st1" points="748.17,293.15 732.62,314.79 732.62,318.86 "/>
<polyline class="st1" points="733.21,285.37 721.79,309.09 721.59,312.72 "/>
<polyline class="st1" points="716.42,279.98 710.01,305.41 710.01,308.68 "/>
<polyline class="st1" points="700.29,277.56 698.28,303.76 698.04,306.77 "/>
<path class="st1" d="M788.93,343.73l-26.75,9.42c-27.01-51.19-70.56-46.38-70.56-46.38"/>
<path class="st1" d="M756.97,437.72l-2.44-70.61c0,0-7.82-50.06-62.96-50.06v121.48"/>
<line class="st1" x1="746.65" y1="346.61" x2="749.26" y2="437.72"/>
<line class="st1" x1="737.25" y1="334.36" x2="739.12" y2="438.36"/>
<line class="st1" x1="728.1" y1="326.93" x2="730.46" y2="438.52"/>
<line class="st1" x1="718.92" y1="322.1" x2="719.87" y2="438.36"/>
<line class="st1" x1="710.01" y1="319.18" x2="709.6" y2="438.36"/>
<line class="st1" x1="700.29" y1="317.49" x2="700.61" y2="437.72"/>
<line class="st1" x1="691.62" y1="330.93" x2="734.1" y2="331.43"/>
<line class="st1" x1="691.57" y1="345.98" x2="746.27" y2="345.98"/>
<line class="st1" x1="691.57" y1="361.62" x2="753.19" y2="361.62"/>
<line class="st1" x1="691.57" y1="377.6" x2="754.89" y2="377.6"/>
<line class="st1" x1="691.57" y1="394.38" x2="755.52" y2="395.7"/>
<line class="st1" x1="691.57" y1="412.45" x2="756.14" y2="413.42"/>
<line class="st1" x1="691.57" y1="429.31" x2="756.71" y2="429.8"/>
<line class="st3" x1="874.57" y1="334.03" x2="859.57" y2="334.03"/>
<polyline class="st3" points="858.16,337.01 874.56,336.94 874.7,334.74 "/>
<line class="st3" x1="874.56" y1="336.94" x2="874.56" y2="340.24"/>
<path class="st3" d="M855.31,326.67v2.57h-59.05c0,0-24.86-59.05-95.24-63.55"/>
<path class="st1" d="M911.79,314.44c0,0-45.57,2.6-25.03-15.37c-23.11,0-23.11,0-23.11,0l3.85-6.42h-50.07
	c0,0-42.36-62.91-125.81-62.91"/>
<path class="st1" d="M902.59,325.21c0,0-29.95,2.1-29.95-12.02l2.57-2.57H852.1v-2.57l3.85-3.85h-44.93c0,0-39.8-64.19-119.39-64.19
	"/>
<path class="st1" d="M869.43,281.56l-46.86-0.47c0,0-43.65-61.62-130.95-61.62"/>
<path class="st3" d="M794.97,331.8c0,0-24.86-59.05-95.24-63.55"/>
<line class="st1" x1="863.01" y1="535.93" x2="841.81" y2="535.93"/>
<line class="st1" x1="869.65" y1="546.2" x2="837" y2="546.34"/>
<line class="st1" x1="839.68" y1="541.05" x2="866.72" y2="541.22"/>
<line class="st1" x1="824.71" y1="547.48" x2="793.27" y2="547.48"/>
<line class="st1" x1="822.47" y1="542.53" x2="795.49" y2="542.39"/>
<path class="st4" d="M807.47,251.89c0,0-6.72-55.53-115.84-51.68"/>
<g>
	<g>
		<path class="st1" d="M695.34,569.95"/>
		<path class="st1" d="M695.34,617.45c0,0-252.91,2.57-258.04-8.99c0-5.14,0-6.42,8.99-7.7c0-1.28,2.57-3.85,8.99-3.85
			c0-2.57,3.85-3.85,10.27-3.85c0-2.57,1.28-5.14,8.99-5.14c0-2.57,3.85-2.57,8.99-2.57c0-3.85,2.57-5.14,8.99-5.14
			c0-2.57,1.28-3.85,10.27-3.85c0-3.85,2.57-3.85,8.99-3.85c0-3.85,1.28-3.85,5.14-3.85c3.85,0,179.73,1.28,179.73,1.28"/>
		<path class="st1" d="M695.34,608.46c0,0-247.77,0-249.05-7.7"/>
		<path class="st1" d="M695.34,603.32c0,0-238.78,0-240.07-6.42"/>
		<path class="st1" d="M695.34,598.19c0,0-228.47-2.46-229.78-5.53"/>
		<path class="st1" d="M693.88,593.95"/>
		<path class="st1" d="M483.52,585.11"/>
		<path class="st1" d="M492.51,580.22"/>
		<path class="st1" d="M474.17,587.92c0,0,1.65,1.28,10.64,1.28c8.99,0,210.54,2.57,210.54,2.57"/>
		<line class="st1" x1="483.52" y1="585.35" x2="695.34" y2="586.64"/>
		<line class="st1" x1="492.51" y1="580.22" x2="695.34" y2="581.5"/>
		<line class="st1" x1="502.78" y1="576.24" x2="695.34" y2="576.37"/>
		<line class="st1" x1="511.76" y1="572.51" x2="695.34" y2="573.8"/>
	</g>
	<g>
		<path class="st1" d="M695.34,569.95"/>
		<path class="st1" d="M695.34,617.45c0,0,252.91,2.57,258.04-8.99c0-5.14,0-6.42-8.99-7.7c0-1.28-2.57-3.85-8.99-3.85
			c0-2.57-3.85-3.85-10.27-3.85c0-2.57-1.28-5.14-8.99-5.14c0-2.57-3.85-2.57-8.99-2.57c0-3.85-2.57-5.14-8.99-5.14
			c0-2.57-1.28-3.85-10.27-3.85c0-3.85-2.57-3.85-8.99-3.85c0-3.85-1.28-3.85-5.14-3.85c-3.85,0-178.45,1.28-178.45,1.28"/>
		<path class="st1" d="M695.34,608.46c0,0,247.77,0,249.05-7.7"/>
		<path class="st1" d="M695.34,603.32c0,0,238.78,0,240.07-6.42"/>
		<path class="st1" d="M695.34,598.19c0,0,228.47-2.46,229.78-5.53"/>
		<path class="st1" d="M696.81,593.95"/>
		<path class="st1" d="M907.16,585.11"/>
		<path class="st1" d="M898.18,580.22"/>
		<path class="st1" d="M916.52,587.92c0,0-1.65,1.28-10.64,1.28c-8.99,0-210.54,2.57-210.54,2.57"/>
		<line class="st1" x1="907.17" y1="585.35" x2="695.34" y2="586.64"/>
		<line class="st1" x1="898.18" y1="580.22" x2="695.34" y2="581.5"/>
		<line class="st1" x1="887.91" y1="576.24" x2="695.34" y2="576.37"/>
		<line class="st1" x1="878.93" y1="572.51" x2="695.34" y2="573.8"/>
	</g>
</g>
</svg>
