<?xml version="1.0" encoding="utf-8"?>
<!-- Generator: Adobe Illustrator 24.0.0, SVG Export Plug-In . SVG Version: 6.00 Build 0)  -->
<svg version="1.1" id="bat" xmlns="http://www.w3.org/2000/svg" xmlns:xlink="http://www.w3.org/1999/xlink" x="0px" y="0px"
	 viewBox="0 0 1366 768" style="enable-background:new 0 0 1366 768;" xml:space="preserve">
<style type="text/css">
	.st0{fill:none;stroke:#FFFFFF;stroke-miterlimit:10;}
	.st1{fill:none;stroke:#FFFFFF;stroke-width:0.75;stroke-miterlimit:10;}
</style>
<line class="st0" x1="435.15" y1="307.38" x2="434.69" y2="308.2"/>
<path class="st0" d="M712.08,664.12L360.15,667l0.96-70.19c0,0-3.85-7.69-9.62-7.69c5.77-11.54,3.85-13.46,26.92-13.46
	c23.08,0,53.85-1.92,53.85-1.92l2.88-316.35c0,0-33.65-135.58,270.19-141.35v109.62v1.92"/>
<path class="st0" d="M435.07,308.2"/>
<path class="st0" d="M650.54,557.38"/>
<line class="st0" x1="650.54" y1="476.62" x2="650.54" y2="545.85"/>
<line class="st0" x1="650.54" y1="397.77" x2="650.54" y2="465.08"/>
<line class="st0" x1="649.58" y1="317" x2="649.58" y2="386.23"/>
<line class="st0" x1="649.58" y1="242" x2="649.58" y2="307.38"/>
<line class="st0" x1="649.8" y1="165.72" x2="649.58" y2="230.46"/>
<path class="st0" d="M670.73,557.38"/>
<line class="st0" x1="670.73" y1="476.62" x2="670.73" y2="544.88"/>
<line class="st0" x1="670.73" y1="395.85" x2="670.73" y2="465.08"/>
<line class="st0" x1="670.73" y1="317" x2="670.73" y2="384.31"/>
<line class="st0" x1="670.73" y1="240.08" x2="670.73" y2="305.46"/>
<line class="st0" x1="670.73" y1="163.15" x2="670.71" y2="228.52"/>
<path class="st0" d="M618.81,557.38"/>
<line class="st0" x1="618.81" y1="477.58" x2="618.81" y2="546.81"/>
<line class="st0" x1="618.81" y1="398.73" x2="618.81" y2="467"/>
<line class="st0" x1="618.81" y1="321.81" x2="618.81" y2="388.15"/>
<line class="st0" x1="618.81" y1="244.88" x2="618.81" y2="309.31"/>
<line class="st0" x1="618.81" y1="168.92" x2="618.81" y2="233.35"/>
<path class="st0" d="M605.35,557.38"/>
<line class="st0" x1="603.42" y1="478.54" x2="603.42" y2="547.77"/>
<line class="st0" x1="603.42" y1="401.62" x2="603.42" y2="467"/>
<line class="st0" x1="603.42" y1="322.77" x2="603.42" y2="388.15"/>
<line class="st0" x1="602.55" y1="247.51" x2="603.42" y2="311.23"/>
<line class="st0" x1="603.25" y1="170.79" x2="603.42" y2="234.31"/>
<line class="st0" x1="565.92" y1="567" x2="565.92" y2="558.35"/>
<polyline class="st0" points="565.92,469.88 565.92,467 565.92,407.38 565.92,405.13 "/>
<polyline class="st0" points="565.92,330.46 565.92,392 565.92,393.21 "/>
<path class="st0" d="M566.48,131.42L565.92,242c0,0,85.66-16.42,138.96-14.92"/>
<path class="st0" d="M554.36,560.27"/>
<path class="st0" d="M464.96,556.42v-55.77v-4.75c3.85-4.75,89.4-13.52,89.4-13.52v82.69v2.64"/>
<path class="st0" d="M554.36,470.85v-63.46c0,0-77.86,10.58-89.4,21.15v55.77C464.96,484.31,521.63,470.85,554.36,470.85"/>
<polyline class="st0" points="554.36,332.38 554.36,392 554.36,394.88 "/>
<line class="st0" x1="554.36" y1="257.43" x2="554.36" y2="318.92"/>
<line class="st0" x1="532.27" y1="484.31" x2="532.27" y2="551.62"/>
<line class="st0" x1="532.27" y1="411.23" x2="532.27" y2="473.73"/>
<line class="st0" x1="532.27" y1="337.19" x2="532.27" y2="398.73"/>
<line class="st0" x1="532.27" y1="261.23" x2="532.27" y2="324.69"/>
<line class="st0" x1="532.75" y1="186.3" x2="532.27" y2="250.65"/>
<line class="st0" x1="519.07" y1="486.23" x2="519.07" y2="552.58"/>
<polyline class="st0" points="519.07,413.15 519.07,472.77 519.07,474.64 "/>
<line class="st0" x1="519.07" y1="340.08" x2="519.07" y2="401.62"/>
<line class="st0" x1="519.07" y1="265.51" x2="519.07" y2="328.97"/>
<polyline class="st0" points="519.56,191.54 518.81,253.54 518.81,254.5 "/>
<polyline class="st0" points="499.45,554.5 499.58,490.08 499.58,488.88 "/>
<line class="st0" x1="499.45" y1="417" x2="499.45" y2="476.62"/>
<line class="st0" x1="499.45" y1="345.85" x2="499.45" y2="405.46"/>
<line class="st0" x1="499.45" y1="272.77" x2="499.45" y2="334.31"/>
<line class="st0" x1="499.45" y1="199.61" x2="499.45" y2="261.23"/>
<line class="st0" x1="489.15" y1="491.04" x2="489.15" y2="554.5"/>
<line class="st0" x1="489.15" y1="420.85" x2="489.15" y2="478.54"/>
<path class="st0" d="M489.15,355.08"/>
<line class="st0" x1="489.15" y1="276.23" x2="489.15" y2="338.15"/>
<polyline class="st0" points="489.15,265.08 489.63,205.46 489.63,204.5 "/>
<polyline class="st0" points="464.96,417 464.96,361.23 464.96,360.48 "/>
<line class="st0" x1="464.96" y1="178.54" x2="465.7" y2="279.5"/>
<path class="st0" d="M432.93,512.15c0.66-5.81,22.42-12.45,22.42-12.45v60.58c0,0-21.03,1.92-23.02,6.73"/>
<path class="st0" d="M432.93,501.72c2.58-6.63,22.42-13.93,22.42-13.93v-1.56l0.15-53.85c0,0-19.05,11.43-22.1,17.73"/>
<polyline class="st0" points="455.5,366.27 455.5,418.92 455.5,420.9 "/>
<path class="st0" d="M455.35,297.77l0.15,56.97c0,0-13.91,7.81-21.4,18.47"/>
<path class="st0" d="M454.76,188.64v1.44l0.59,92.31v2.1c0,0-20.19,18.09-20.19,22.9"/>
<path class="st0" d="M705.35,314.96c0,0-224.98,6.2-271.8,70.69"/>
<path class="st0" d="M433.54,436.94c41.01-50.5,269.88-53.97,269.88-53.97h1.92"/>
<line class="st0" x1="605.34" y1="401.78" x2="605.35" y2="400.64"/>
<line class="st0" x1="554.36" y1="318.66" x2="554.36" y2="319.88"/>
<path class="st0" d="M554.36,257.64v-1.93c0,0-70.17,18.19-89.4,33.58v0.79v56.73v2.02"/>
<line class="st0" x1="488.04" y1="349.69" x2="488.04" y2="409.31"/>
<line class="st0" x1="649.78" y1="167" x2="618.81" y2="169.97"/>
<line class="st0" x1="603.25" y1="171.97" x2="566.45" y2="178.66"/>
<line class="st0" x1="519.56" y1="192.51" x2="499.45" y2="201.1"/>
<polyline class="st0" points="489.92,205.96 466.15,221.25 465.3,221.79 "/>
<line class="st0" x1="435.1" y1="258" x2="454.76" y2="232.58"/>
<line class="st0" x1="670.71" y1="164.64" x2="706.31" y2="164.27"/>
<line class="st0" x1="532.72" y1="188.53" x2="555.04" y2="181.31"/>
<circle class="st1" cx="686.12" cy="133.35" r="3.85"/>
<ellipse class="st1" cx="634.19" cy="136.23" rx="3.85" ry="4.81"/>
<ellipse class="st1" cx="585.15" cy="143.92" rx="2.88" ry="4.81"/>
<ellipse class="st1" cx="540.92" cy="155.46" rx="2.88" ry="4.81"/>
<ellipse class="st1" cx="506.31" cy="171.81" rx="2.88" ry="3.85"/>
<ellipse class="st1" cx="478.42" cy="185.27" rx="1.92" ry="3.85"/>
<line class="st0" x1="671.09" y1="207.79" x2="706.31" y2="207.42"/>
<line class="st0" x1="649.09" y1="211.89" x2="618.11" y2="214.86"/>
<line class="st0" x1="602.25" y1="217.38" x2="565.45" y2="224.07"/>
<line class="st0" x1="532.79" y1="236.01" x2="555.11" y2="228.79"/>
<line class="st0" x1="519.49" y1="240.16" x2="499.39" y2="248.75"/>
<polyline class="st0" points="489.96,252.58 466.78,267.48 465.64,268.17 "/>
<path class="st0" d="M670.73,242.61c20.08-1.33,32.89-1.52,32.89-1.52c1.73,0,2.69,0,2.69,0"/>
<path class="st0" d="M618.81,247.52c10.89-1.35,21.26-2.42,30.77-3.27"/>
<path class="st0" d="M565.92,255.99c12.35-2.49,24.7-4.56,36.65-6.3"/>
<path class="st0" d="M532.27,263.94c7.26-2,14.65-3.82,22.1-5.49"/>
<path class="st0" d="M499.45,274.67c6.32-2.46,12.89-4.74,19.62-6.86"/>
<path class="st0" d="M464.96,291.8c7.29-4.71,15.44-8.98,24.19-12.85"/>
<line class="st0" x1="455.35" y1="298.46" x2="434.56" y2="322.41"/>
<path class="st0" d="M671.18,283.27c20.08-1.33,34.17-1.84,34.17-1.84"/>
<path class="st0" d="M619.25,288.18c10.89-1.35,21.26-2.42,30.77-3.27"/>
<path class="st0" d="M566.37,296.65c12.35-2.49,24.7-4.56,36.65-6.3"/>
<path class="st0" d="M532.72,304.59c7.26-2,14.65-3.82,22.1-5.49"/>
<path class="st0" d="M499.9,315.32c6.32-2.46,12.89-4.74,19.62-6.86"/>
<path class="st0" d="M465.41,332.45c7.29-4.71,15.44-8.98,24.19-12.85"/>
<path class="st0" d="M566.25,177.24c0,0,69.86-13.99,139.1-15.33"/>
<path class="st0" d="M554.78,179.01c0,0-63.87,18.4-89.5,41.72"/>
<path class="st0" d="M455.05,230.42c0,0-19.93,20.49-19.91,28.54"/>
<polyline class="st0" points="705.35,314.12 705.35,382.38 705.35,383.35 705.35,383.35 "/>
<line class="st0" x1="705.35" y1="394.88" x2="705.35" y2="464.12"/>
<path class="st0" d="M565.92,563.15v-78.85v-2.88c12.5-5.77,139.42-5.77,139.42-5.77v69.23c0,0-134.62,1.92-138.46,3.85"/>
<path class="st0" d="M465.92,278.54c0,0,5.75-11.49,88.44-34.57l0.71-109.66"/>
<path class="st0" d="M705.35,302.58c-55.77,0-139.42,14.42-139.42,14.42v-63.46c35.58-8.65,140.38-15.38,140.38-15.38L705.35,302.58
	z"/>
<path class="st0" d="M464.96,348.83c0,0,65.36-27.92,89.42-29.91"/>
<path class="st0" d="M565.92,469.88c0,0,119.09-8.74,138.42-6.12"/>
<path class="st0" d="M565.92,405.46c0,0,99.58-12.55,138.96-10.57"/>
<path class="st0" d="M554.36,549.78c0,0-81.71,4.72-89.4,8.56v-2.4"/>
<path class="st0" d="M674.58,562.19"/>
<path class="st0" d="M432.27,573.73l171.15-8.44l47.12-2.32l54.81-2.7v-2.88c0,0-84.62-0.96-86.54,0.96v5.77"/>
<path class="st0" d="M603.42,566.04v-7.69c0,0-36.54-1.48-37.5,2.15"/>
<path class="st0" d="M555.35,560.27c0,0-23.08,0-23.08,1.92c0,1.92,0,6.61,0,6.61"/>
<path class="st0" d="M519.07,569.45l-0.27-5.34c0,0-51.92,1.92-53.85,3.85c0,1.92,0,4.16,0,4.16"/>
<path class="st0" d="M456.31,572.55v-2.66c0,0-20.19,0-24.04,1.92"/>
<line class="st0" x1="670.73" y1="319.83" x2="705.35" y2="317.96"/>
<line class="st0" x1="670.73" y1="361.83" x2="705.35" y2="360.27"/>
<line class="st0" x1="649.58" y1="322.41" x2="618.81" y2="326.03"/>
<line class="st0" x1="649.58" y1="362.19" x2="618.9" y2="365.28"/>
<line class="st0" x1="554.36" y1="376.43" x2="532.27" y2="380.43"/>
<line class="st0" x1="603.42" y1="364.62" x2="565.92" y2="370.07"/>
<line class="st0" x1="603.42" y1="327.42" x2="565.92" y2="334.31"/>
<line class="st0" x1="553.42" y1="337.19" x2="532.27" y2="342.96"/>
<line class="st0" x1="519.07" y1="347.18" x2="499.58" y2="354.5"/>
<line class="st0" x1="519.07" y1="384.31" x2="499.58" y2="391.04"/>
<line class="st0" x1="488.04" y1="391.52" x2="464.96" y2="402.58"/>
<line class="st0" x1="488.04" y1="358.08" x2="464.96" y2="369.88"/>
<line class="st0" x1="705.35" y1="398.73" x2="670.73" y2="399.33"/>
<line class="st0" x1="705.35" y1="440.39" x2="670.73" y2="441.49"/>
<line class="st0" x1="649.58" y1="400.65" x2="618.9" y2="404.05"/>
<line class="st0" x1="650.54" y1="443.3" x2="618.9" y2="445.85"/>
<line class="st0" x1="603.42" y1="405.46" x2="565.92" y2="409.96"/>
<line class="st0" x1="603.42" y1="446.94" x2="565.92" y2="451.12"/>
<line class="st0" x1="554.36" y1="411.23" x2="532.27" y2="415.86"/>
<line class="st0" x1="532.27" y1="454.93" x2="555.35" y2="450.65"/>
<line class="st0" x1="519.07" y1="419.86" x2="499.58" y2="424.95"/>
<line class="st0" x1="519.07" y1="454.93" x2="499.58" y2="461.11"/>
<line class="st0" x1="489.15" y1="427.31" x2="464.96" y2="436.22"/>
<line class="st0" x1="489.15" y1="463.28" x2="464.96" y2="473.73"/>
<path class="st0" d="M434.56,253.93c0,0-107.1-138.86,277.52-161.93"/>
<line class="st0" x1="670.73" y1="479.46" x2="705.35" y2="479.46"/>
<line class="st0" x1="705.35" y1="518.17" x2="670.73" y2="517.96"/>
<line class="st0" x1="650.54" y1="480.37" x2="618.81" y2="481.28"/>
<line class="st0" x1="650.54" y1="519.4" x2="618.9" y2="520.35"/>
<line class="st0" x1="603.42" y1="482.38" x2="565.92" y2="485.1"/>
<line class="st0" x1="603.42" y1="521.07" x2="565.92" y2="523.62"/>
<line class="st0" x1="554.36" y1="486.23" x2="532.27" y2="488.88"/>
<line class="st0" x1="554.36" y1="526.19" x2="532.27" y2="529.64"/>
<line class="st0" x1="519.07" y1="491.82" x2="499.58" y2="497.09"/>
<line class="st0" x1="489.15" y1="498.9" x2="464.96" y2="506.72"/>
<line class="st0" x1="488.04" y1="533.35" x2="464.96" y2="541.61"/>
<line class="st0" x1="519.07" y1="528.89" x2="499.58" y2="535.61"/>
<line class="st0" x1="361.11" y1="597.3" x2="711.12" y2="585.27"/>
<line class="st0" x1="988.04" y1="307.38" x2="988.5" y2="308.2"/>
<path class="st0" d="M712.08,664.12l350.96,2.88l-0.96-70.19c0,0,3.85-7.69,9.62-7.69c-5.77-11.54-3.85-13.46-26.92-13.46
	c-23.08,0-53.85-1.92-53.85-1.92l-2.88-316.35c0,0,33.65-135.58-270.19-141.35v109.62v1.92"/>
<path class="st0" d="M988.12,308.2"/>
<path class="st0" d="M772.65,557.38"/>
<line class="st0" x1="772.65" y1="476.62" x2="772.65" y2="545.85"/>
<line class="st0" x1="772.65" y1="397.77" x2="772.65" y2="465.08"/>
<line class="st0" x1="773.62" y1="317" x2="773.62" y2="386.23"/>
<line class="st0" x1="773.62" y1="242" x2="773.62" y2="307.38"/>
<line class="st0" x1="773.4" y1="165.72" x2="773.62" y2="230.46"/>
<path class="st0" d="M752.46,557.38"/>
<line class="st0" x1="752.46" y1="476.62" x2="752.46" y2="544.88"/>
<line class="st0" x1="752.46" y1="395.85" x2="752.46" y2="465.08"/>
<line class="st0" x1="752.46" y1="317" x2="752.46" y2="384.31"/>
<line class="st0" x1="752.46" y1="240.08" x2="752.46" y2="305.46"/>
<line class="st0" x1="752.46" y1="163.15" x2="752.48" y2="228.52"/>
<path class="st0" d="M804.38,557.38"/>
<line class="st0" x1="804.38" y1="477.58" x2="804.38" y2="546.81"/>
<line class="st0" x1="804.38" y1="398.73" x2="804.38" y2="467"/>
<line class="st0" x1="804.38" y1="321.81" x2="804.38" y2="388.15"/>
<line class="st0" x1="804.38" y1="244.88" x2="804.38" y2="309.31"/>
<line class="st0" x1="804.38" y1="168.92" x2="804.38" y2="233.35"/>
<path class="st0" d="M817.85,557.38"/>
<line class="st0" x1="819.77" y1="478.54" x2="819.77" y2="547.77"/>
<line class="st0" x1="819.77" y1="401.62" x2="819.77" y2="467"/>
<line class="st0" x1="819.77" y1="322.77" x2="819.77" y2="388.15"/>
<line class="st0" x1="820.64" y1="247.51" x2="819.77" y2="311.23"/>
<line class="st0" x1="819.94" y1="170.79" x2="819.77" y2="234.31"/>
<line class="st0" x1="857.27" y1="567" x2="857.27" y2="558.35"/>
<polyline class="st0" points="857.27,469.88 857.27,467 857.27,407.38 857.27,405.13 "/>
<polyline class="st0" points="857.27,330.46 857.27,392 857.27,393.21 "/>
<path class="st0" d="M856.71,131.42L857.27,242c0,0-85.66-16.42-138.96-14.92"/>
<path class="st0" d="M868.83,560.27"/>
<path class="st0" d="M958.23,556.42v-55.77v-4.75c-3.85-4.75-89.4-13.52-89.4-13.52v82.69v2.64"/>
<path class="st0" d="M868.83,470.85v-63.46c0,0,77.86,10.58,89.4,21.15v55.77C958.23,484.31,901.56,470.85,868.83,470.85"/>
<polyline class="st0" points="868.83,332.38 868.83,392 868.83,394.88 "/>
<line class="st0" x1="868.83" y1="257.43" x2="868.83" y2="318.92"/>
<line class="st0" x1="890.92" y1="484.31" x2="890.92" y2="551.62"/>
<line class="st0" x1="890.92" y1="411.23" x2="890.92" y2="473.73"/>
<line class="st0" x1="890.92" y1="337.19" x2="890.92" y2="398.73"/>
<line class="st0" x1="890.92" y1="261.23" x2="890.92" y2="324.69"/>
<line class="st0" x1="890.44" y1="186.3" x2="890.92" y2="250.65"/>
<line class="st0" x1="904.12" y1="486.23" x2="904.12" y2="552.58"/>
<polyline class="st0" points="904.12,413.15 904.12,472.77 904.12,474.64 "/>
<line class="st0" x1="904.12" y1="340.08" x2="904.12" y2="401.62"/>
<line class="st0" x1="904.12" y1="265.51" x2="904.12" y2="328.97"/>
<polyline class="st0" points="903.64,191.54 904.38,253.54 904.38,254.5 "/>
<polyline class="st0" points="923.74,554.5 923.62,490.08 923.62,488.88 "/>
<line class="st0" x1="923.74" y1="417" x2="923.74" y2="476.62"/>
<line class="st0" x1="923.74" y1="345.85" x2="923.74" y2="405.46"/>
<line class="st0" x1="923.74" y1="272.77" x2="923.74" y2="334.31"/>
<line class="st0" x1="923.74" y1="199.61" x2="923.74" y2="261.23"/>
<line class="st0" x1="934.04" y1="491.04" x2="934.04" y2="554.5"/>
<line class="st0" x1="934.04" y1="420.85" x2="934.04" y2="478.54"/>
<path class="st0" d="M934.04,355.08"/>
<line class="st0" x1="934.04" y1="276.23" x2="934.04" y2="338.15"/>
<polyline class="st0" points="934.04,265.08 933.56,205.46 933.56,204.5 "/>
<polyline class="st0" points="958.23,417 958.23,361.23 958.23,360.48 "/>
<line class="st0" x1="958.23" y1="178.54" x2="957.49" y2="279.5"/>
<path class="st0" d="M990.27,512.15c-0.66-5.81-22.42-12.45-22.42-12.45v60.58c0,0,21.03,1.92,23.02,6.73"/>
<path class="st0" d="M990.27,501.72c-2.58-6.63-22.42-13.93-22.42-13.93v-1.56l-0.15-53.85c0,0,19.05,11.43,22.1,17.73"/>
<polyline class="st0" points="967.7,366.27 967.7,418.92 967.7,420.9 "/>
<path class="st0" d="M967.85,297.77l-0.15,56.97c0,0,13.91,7.81,21.4,18.47"/>
<path class="st0" d="M968.43,188.64v1.44l-0.59,92.31v2.1c0,0,20.19,18.09,20.19,22.9"/>
<path class="st0" d="M717.85,314.96c0,0,224.98,6.2,271.8,70.69"/>
<path class="st0" d="M989.65,436.94c-41.01-50.5-269.88-53.97-269.88-53.97h-1.92"/>
<line class="st0" x1="817.85" y1="401.78" x2="817.85" y2="400.64"/>
<line class="st0" x1="868.83" y1="318.66" x2="868.83" y2="319.88"/>
<path class="st0" d="M868.83,257.64v-1.93c0,0,70.17,18.19,89.4,33.58v0.79v56.73v2.02"/>
<line class="st0" x1="935.15" y1="349.69" x2="935.15" y2="409.31"/>
<line class="st0" x1="773.41" y1="167" x2="804.38" y2="169.97"/>
<line class="st0" x1="819.94" y1="171.97" x2="856.74" y2="178.66"/>
<line class="st0" x1="903.64" y1="192.51" x2="923.74" y2="201.1"/>
<polyline class="st0" points="933.27,205.96 957.05,221.25 957.89,221.79 "/>
<line class="st0" x1="988.1" y1="258" x2="968.43" y2="232.58"/>
<line class="st0" x1="752.48" y1="164.64" x2="716.88" y2="164.27"/>
<line class="st0" x1="890.47" y1="188.53" x2="868.15" y2="181.31"/>
<circle class="st1" cx="737.08" cy="133.35" r="3.85"/>
<ellipse class="st1" cx="789" cy="136.23" rx="3.85" ry="4.81"/>
<ellipse class="st1" cx="838.04" cy="143.92" rx="2.88" ry="4.81"/>
<ellipse class="st1" cx="882.27" cy="155.46" rx="2.88" ry="4.81"/>
<ellipse class="st1" cx="916.88" cy="171.81" rx="2.88" ry="3.85"/>
<ellipse class="st1" cx="944.77" cy="185.27" rx="1.92" ry="3.85"/>
<line class="st0" x1="752.1" y1="207.79" x2="716.88" y2="207.42"/>
<line class="st0" x1="774.1" y1="211.89" x2="805.08" y2="214.86"/>
<line class="st0" x1="820.94" y1="217.38" x2="857.74" y2="224.07"/>
<line class="st0" x1="890.4" y1="236.01" x2="868.08" y2="228.79"/>
<line class="st0" x1="903.7" y1="240.16" x2="923.8" y2="248.75"/>
<polyline class="st0" points="933.23,252.58 956.41,267.48 957.56,268.17 "/>
<path class="st0" d="M752.46,242.61c-20.08-1.33-32.89-1.52-32.89-1.52c-1.73,0-2.69,0-2.69,0"/>
<path class="st0" d="M804.38,247.52c-10.89-1.35-21.26-2.42-30.77-3.27"/>
<path class="st0" d="M857.27,255.99c-12.35-2.49-24.7-4.56-36.65-6.3"/>
<path class="st0" d="M890.92,263.94c-7.26-2-14.65-3.82-22.1-5.49"/>
<path class="st0" d="M923.74,274.67c-6.32-2.46-12.89-4.74-19.62-6.86"/>
<path class="st0" d="M958.23,291.8c-7.29-4.71-15.44-8.98-24.19-12.85"/>
<line class="st0" x1="967.84" y1="298.46" x2="988.63" y2="322.41"/>
<path class="st0" d="M752.02,283.27c-20.08-1.33-34.17-1.84-34.17-1.84"/>
<path class="st0" d="M803.94,288.18c-10.89-1.35-21.26-2.42-30.77-3.27"/>
<path class="st0" d="M856.82,296.65c-12.35-2.49-24.7-4.56-36.65-6.3"/>
<path class="st0" d="M890.48,304.59c-7.26-2-14.65-3.82-22.1-5.49"/>
<path class="st0" d="M923.3,315.32c-6.32-2.46-12.89-4.74-19.62-6.86"/>
<path class="st0" d="M957.78,332.45c-7.29-4.71-15.44-8.98-24.19-12.85"/>
<path class="st0" d="M856.94,177.24c0,0-69.86-13.99-139.1-15.33"/>
<path class="st0" d="M868.41,179.01c0,0,63.87,18.4,89.5,41.72"/>
<path class="st0" d="M968.14,230.42c0,0,19.93,20.49,19.91,28.54"/>
<polyline class="st0" points="717.85,314.12 717.85,382.38 717.85,383.35 717.85,383.35 "/>
<line class="st0" x1="717.85" y1="394.88" x2="717.85" y2="464.12"/>
<path class="st0" d="M857.27,563.15v-78.85v-2.88c-12.5-5.77-139.42-5.77-139.42-5.77v69.23c0,0,134.62,1.92,138.46,3.85"/>
<path class="st0" d="M957.27,278.54c0,0-5.75-11.49-88.44-34.57l-0.71-109.66"/>
<path class="st0" d="M717.85,302.58c55.77,0,139.42,14.42,139.42,14.42v-63.46c-35.58-8.65-140.38-15.38-140.38-15.38L717.85,302.58
	z"/>
<path class="st0" d="M958.23,348.83c0,0-65.36-27.92-89.42-29.91"/>
<path class="st0" d="M857.27,469.88c0,0-119.09-8.74-138.42-6.12"/>
<path class="st0" d="M857.27,405.46c0,0-99.58-12.55-138.96-10.57"/>
<path class="st0" d="M868.83,549.78c0,0,81.71,4.72,89.4,8.56v-2.4"/>
<path class="st0" d="M748.62,562.19"/>
<path class="st0" d="M990.92,573.73l-171.15-8.44l-47.12-2.32l-54.81-2.7v-2.88c0,0,84.62-0.96,86.54,0.96v5.77"/>
<path class="st0" d="M819.77,566.04v-7.69c0,0,36.54-1.48,37.5,2.15"/>
<path class="st0" d="M867.85,560.27c0,0,23.08,0,23.08,1.92c0,1.92,0,6.61,0,6.61"/>
<path class="st0" d="M904.12,569.45l0.27-5.34c0,0,51.92,1.92,53.85,3.85c0,1.92,0,4.16,0,4.16"/>
<path class="st0" d="M966.89,572.55v-2.66c0,0,20.19,0,24.04,1.92"/>
<line class="st0" x1="752.46" y1="319.83" x2="717.85" y2="317.96"/>
<line class="st0" x1="752.46" y1="361.83" x2="717.85" y2="360.27"/>
<line class="st0" x1="773.62" y1="322.41" x2="804.38" y2="326.03"/>
<line class="st0" x1="773.62" y1="362.19" x2="804.3" y2="365.28"/>
<line class="st0" x1="868.83" y1="376.43" x2="890.92" y2="380.43"/>
<line class="st0" x1="819.77" y1="364.62" x2="857.27" y2="370.07"/>
<line class="st0" x1="819.77" y1="327.42" x2="857.27" y2="334.31"/>
<line class="st0" x1="869.77" y1="337.19" x2="890.92" y2="342.96"/>
<line class="st0" x1="904.12" y1="347.18" x2="923.62" y2="354.5"/>
<line class="st0" x1="904.12" y1="384.31" x2="923.62" y2="391.04"/>
<line class="st0" x1="935.15" y1="391.52" x2="958.23" y2="402.58"/>
<line class="st0" x1="935.15" y1="358.08" x2="958.23" y2="369.88"/>
<line class="st0" x1="717.85" y1="398.73" x2="752.46" y2="399.33"/>
<line class="st0" x1="717.85" y1="440.39" x2="752.46" y2="441.49"/>
<line class="st0" x1="773.62" y1="400.65" x2="804.3" y2="404.05"/>
<line class="st0" x1="772.65" y1="443.3" x2="804.3" y2="445.85"/>
<line class="st0" x1="819.77" y1="405.46" x2="857.27" y2="409.96"/>
<line class="st0" x1="819.77" y1="446.94" x2="857.27" y2="451.12"/>
<line class="st0" x1="868.83" y1="411.23" x2="890.92" y2="415.86"/>
<line class="st0" x1="890.92" y1="454.93" x2="867.85" y2="450.65"/>
<line class="st0" x1="904.12" y1="419.86" x2="923.62" y2="424.95"/>
<line class="st0" x1="904.12" y1="454.93" x2="923.62" y2="461.11"/>
<line class="st0" x1="934.04" y1="427.31" x2="958.23" y2="436.22"/>
<line class="st0" x1="934.04" y1="463.28" x2="958.23" y2="473.73"/>
<path class="st0" d="M988.63,253.93c0,0,107.1-138.86-277.52-161.93"/>
<line class="st0" x1="752.46" y1="479.46" x2="717.85" y2="479.46"/>
<line class="st0" x1="717.85" y1="518.17" x2="752.46" y2="517.96"/>
<line class="st0" x1="772.65" y1="480.37" x2="804.38" y2="481.28"/>
<line class="st0" x1="772.65" y1="519.4" x2="804.3" y2="520.35"/>
<line class="st0" x1="819.77" y1="482.38" x2="857.27" y2="485.1"/>
<line class="st0" x1="819.77" y1="521.07" x2="857.27" y2="523.62"/>
<line class="st0" x1="868.83" y1="486.23" x2="890.92" y2="488.88"/>
<line class="st0" x1="868.83" y1="526.19" x2="890.92" y2="529.64"/>
<line class="st0" x1="904.12" y1="491.82" x2="923.62" y2="497.09"/>
<line class="st0" x1="934.04" y1="498.9" x2="958.23" y2="506.72"/>
<line class="st0" x1="935.15" y1="533.35" x2="958.23" y2="541.61"/>
<line class="st0" x1="904.12" y1="528.89" x2="923.62" y2="535.61"/>
<line class="st0" x1="1062.08" y1="597.3" x2="711.12" y2="585.27"/>
<polyline class="st0" points="705.35,560.27 711.6,560.27 717.85,560.27 "/>
<line class="st0" x1="711.12" y1="664.12" x2="711.12" y2="560.27"/>
</svg>
