<svg xmlns="http://www.w3.org/2000/svg" viewBox="0 0 92.36 194.87">
    <defs>
        <style>.cls-1{fill:#fff;}</style>
    </defs>
    <title>logo svg</title>
    <g id="Calque_2" data-name="Calque 2">
        <g id="Calque_3" data-name="Calque 3">
            <path class="cls-1"
                  d="M16.26,40.74c.13.4.24.83.35,1.23s.2.9.45.66c-.06,1.14,0,1.6.79.66a1.65,1.65,0,0,1-.26.56c.06.12,0,.27-.47.61.41.06.39.27-.55.86.69-.25.84-.22.37.16.53-.21.44-.07.12.23.71-.37.85-.33.89-.18a2.63,2.63,0,0,1,.82-.2,5.22,5.22,0,0,1-.82.84c.12.14,0,.35-.36.71.28,0,.27.24.3.43a3.54,3.54,0,0,0,.63,1.27.52.52,0,0,0-.35.16,1.25,1.25,0,0,0-.19.35c0,.12.05.28-.21.58.31,0,.35.24.4.44s0,.56.22.63a2.41,2.41,0,0,0-.06.5,1.84,1.84,0,0,0,.05.41c.06.13.12.27-.54.66.67-.13.63,0,.2.38.43-.07.47.08.51.21a1.13,1.13,0,0,0,.15.33c.06.09.14.15,0,.16a.91.91,0,0,1,.08.48c0,.16-.11.34-.51.57.56,0,.61.2-.64.59,1.44-.15,1.59-.08-.33.5,2.36-.6,2.66-.67.27-.1,2.66-.57,2.55-.38.27.64,2.1-.74,2-.58.76.15,1-.34.93-.09.73.14.07.08.07.18,0,.31a2.65,2.65,0,0,1-.8.49c1-.08,1.05.09,1.05.33a1.28,1.28,0,0,1,.34.14.9.9,0,0,1,.25.21c.17.07.3.14,0,.32.57,0,.72.05.53.26.17-.09,0,0-.23.06a1.52,1.52,0,0,0-.27.13,1.37,1.37,0,0,0-.48.38c0,.07-.08.15-.33.22.15.09.09.18-.52.33.61,0,.67.1-.23.41,1-.14,1,0,.38.32.7-.15.75-.05.46.18.4,0,.46.11.48.25a.53.53,0,0,0-.27.31,3,3,0,0,0,0,1.24c0,.34.09.69.52.58-.18.41-.26.69-.05,1s.29.25.12.42c.46,0,.68.1.23.27.81,0,1,.1.44.37.28-.19-.13-.09-.46,0a.79.79,0,0,0-.38.39,1,1,0,0,0,0,.45.62.62,0,0,1-.3.7c.39.11.4.23-.16.38.43.07.28.18-.21.3.52.11.69.24.63.39.21.1.19.23.13.38a1,1,0,0,1,.22.63,1.05,1.05,0,0,0,.47.88c.2.14.49.26,0,.39.5.18.25.37.09.55a.92.92,0,0,0-.21,1c0,.22,0,.45,0,.68s.05.46.06.25c.49.32.38.46-1,.43,1.25.28,1.24.41-.27.49,1.66.16,1.81.29.58.55,1.56,0,1.74.18,1.34.53.82-.19.6-.18-.22,0,.45-.11.31-.09-.09,0,.06,0,0,.09-.26.13.12.17.14.29-.59.29.75.19.75.27,0,.37.76.07.78.15.48.3.35,0,.38.1.39.19s.14.15.21.22a1,1,0,0,0-.11.72c.17.16.3.3-.09.29.42.26.32.37-.65.31.85.3.83.43-.07.5.89.19.91.33.56.47.37.09.38.19.31.3a.41.41,0,0,1,.12.3c0,.2,0,.4-.47.52.56.28.58.48.6.68s.05.4.07.6,0,.4-.47.44c.65.28.76.4.4.42.48.2.42.36.07.41.28.32.29.54-.23.66a2.06,2.06,0,0,1,1,1c-.23-.11-.35-.08-.4,0a.83.83,0,0,0,0,.42c0,.16,0,.32,0,.48s0,.33-.22.33c.3.31.31.48-.31.48.66.31.67.47.68.63s.05.38.07.57c.08.75.16,1.49.21,2.21l-.3-.64-.15-.32a.51.51,0,0,1-.06-.28c-.12-.13-.18-.24-.09-.3a.77.77,0,0,1-.28-.36l-.2-.42a.64.64,0,0,1-.09-.38.76.76,0,0,1-.22-.44A.83.83,0,0,1,21,85l-.12-.26-.21-.51c-.15-.34-.29-.67-.43-1s-.27-.67-1.19-.93a.81.81,0,0,1,.7-.18c-.32-.28-.32-.4.07-.48a1.28,1.28,0,0,1-.69-.5c-.16-.15-.36-.33-.6-.53.68,0,.53-.36.38-.76-.07-.19-.14-.39.21-.42-.5-.36-.57-.55-.41-.79a.78.78,0,0,1-.43-.54l-.11-.29c0-.1-.06-.19-.1-.29s-.13-.39.09-.52c-.39-.23-.51-.39.06-.41-.69-.26-.69-.39.07-.46-.78-.19-.82-.31-.25-.42-.67-.17-.75-.31-.71-.48s-.09-.18-.12-.32a3.25,3.25,0,0,0-.13-.46.85.85,0,0,0-.14-.31c-.08-.1-.22-.2.13-.21-.84-.18-1.2-.26.1-.14-1.47-.29-1.22-.38-.62-.53-.26-.05-.17-.14-.14-.24s-.17-.41-.57-.65c.65,0,.59-.24.52-.42a1.29,1.29,0,0,0-.25-.45,2.12,2.12,0,0,0,0-.44c-.05-.14-.12-.28.27-.45a2.79,2.79,0,0,1-.69-.22c-.16-.08-.27-.17-.17-.24-.4-.09-.56-.18.2-.25-1.14-.13-1.36-.22.13-.4-1.44.08-1.2.07.1,0-.89,0-.74,0,.09,0-.48-.08-.38-.18.23-.15-.33-.13-.44-.24-.34-.36s.3-.24.83-.43c-1.13,0-1.17-.18-1.22-.39l-.09-.47a1.44,1.44,0,0,1,0-.46c-.08-.16-.11-.32.37-.55-.53-.09-.56-.24-.41-.43-.2-.11-.23-.24-.18-.37-.18-.14-.28-.26.4-.39-1.06-.08-1.34-.16.15-.47-1.34,0-1.08-.23-.24-.65-.69,0-.8-.12-1-.3a1,1,0,0,0,.2-.45c0-.16,0-.32.73-.41-.77-.28-.8-.48-.62-.85-.26,0-.31-.17-.4-.28a.4.4,0,0,0-.37-.17,2.18,2.18,0,0,1,.69-1.26c-.55-.18-.72-.34-.63-.56-.71.15-1.05.19-.5,0-.53.12-.56,0-.31-.13-.17,0-.07-.16.49-.37-.37,0-.29-.12.15-.34-.3,0-.24-.08-.17-.19l.09-.26a2.38,2.38,0,0,0,0-.26c0-.16-.06-.31.33-.61-.52.09-.57,0,.1-.32-.68.16-.65.06-.2-.2-.62.12-.84.09-.65-.09-.51.07-.61,0-.24-.28-.15.12.14,0,.45-.17a5.91,5.91,0,0,0,.42-.43c0-.16,0-.34.27-.68-.31-.07-.38-.28-.46-.52a1.45,1.45,0,0,0,.32-.72c0-.14,0-.3.62-.56-.68,0-.79-.1.77-.7-1.55.26-1.42,0,.21-.93-1.61.6-1.71.49-1.33,0-.37.18-.26,0-.09-.08-.09-.07-.08-.18.1-.29-.16-.07-.16-.13.17-.3-.31,0-.3-.17,0-.48-.23,0-.22-.08-.2-.19s0-.36-.11-.42-.2,0-.4.15c.11-.28.21-.53.29-.76a1.26,1.26,0,0,1,.55-.73c-.31-.08-.29-.24.47-.83-.75.3-.76.18-.73,0a.2.2,0,0,1-.17-.13.42.42,0,0,1-.05-.2c-.15,0-.26,0-.24-.09-.24.05-.34,0-.25-.11-.07,0,.05-.08.18-.19l.27-.28a2.45,2.45,0,0,0,.4-.53c.09-.17.14-.34.26-.56-.09-.13-.11-.31,0-.63-.22-.07-.3-.27-.41-.51.7.09.8-.44.79-1.52.11,0,.2-.17.27-.39a5.46,5.46,0,0,1,.36-.91c-.11-.07-.07-.26,0-.45C16.06,41.52,16.16,41.13,16.26,40.74Z"/>
            <path class="cls-1"
                  d="M37.38,0c.2,1.23.38,2.49.55,3.68s.32,2.62.79,2.19c-.17,3,0,4.27,1.41,2.5a3.14,3.14,0,0,1-.5,1.23c.11.38,0,.72-.91,1.19.77.52.72,1-1.07,1.81,1.31-.09,1.59.13.69.75,1-.14.82.17.2.69,1.36-.38,1.62-.13,1.69.28a3.39,3.39,0,0,1,1.56.2A6.67,6.67,0,0,1,40.19,16c.23.46,0,.92-.72,1.54.53.34.5.84.55,1.36a13.94,13.94,0,0,0,1.13,3.77.67.67,0,0,0-.69.14,2.51,2.51,0,0,0-.39.74,1.45,1.45,0,0,1-.45,1.35,1.62,1.62,0,0,1,.73,1.4c0,.68,0,1.45.39,1.77a7.18,7.18,0,0,0-.16,1.22,6.63,6.63,0,0,0,.05,1.09c.1.37.22.74-1.12,1.31,1.32.09,1.24.45.37,1.09.85.09.9.5,1,.86a4.83,4.83,0,0,0,.26.92c.12.25.26.45,0,.42a2.71,2.71,0,0,1,.12,1.24c-.07.4-.25.78-1.07,1.13,1.11.39,1.17.84-1.33,1.15,2.85.42,3.14.64-.71,1.09,4.73-.25,5.33-.25.53-.11,5.33,0,5.11.4.46,1.76,4.24-.76,4.06-.38,1.49.75,2.09-.29,1.85.26,1.42.74a.59.59,0,0,1-.12.74,4.05,4.05,0,0,1-1.65.83c1.94.27,2.08.73,2,1.31a2.93,2.93,0,0,1,.65.51,2.37,2.37,0,0,1,.48.65c.33.24.56.47-.05.76,1.14.2,1.42.46,1,.89.36-.14,0-.09-.45,0a4.6,4.6,0,0,0-.57.19,2.49,2.49,0,0,0-1,.73c-.09.16-.17.32-.68.39.29.29.16.47-1.09.58,1.22.31,1.32.52-.51.93,2,.06,2,.33.7,1,1.41-.1,1.5.18.89.63.8.13.9.44.9.79a1,1,0,0,0-.58.65,8.87,8.87,0,0,0-.22,3c0,.86,0,1.72.91,1.6-.43.92-.63,1.59-.26,2.28.18.34.51.69.15,1.05.89.21,1.31.41.39.71,1.6.2,1.85.49.79,1,.6-.37-.23-.24-.9,0a1.56,1.56,0,0,0-.82.84,2.84,2.84,0,0,0-.12,1.09,1.65,1.65,0,0,1-.72,1.64c.74.35.74.63-.39.88.82.26.51.49-.47.69,1,.36,1.3.7,1.14,1.07.4.28.32.6.18.94A2.79,2.79,0,0,1,42,72.62a2.67,2.67,0,0,0,.71,2.19c.35.34.87.67-.06.92.93.5.39.92,0,1.32A2.79,2.79,0,0,0,42,79.38c-.06.53-.09,1.08-.11,1.63s0,1.1,0,.61c.85.78.61,1.12-1.91,1,2.27.73,2.22,1-.62,1.17,3.07.46,3.29.76,1,1.37,2.89.07,3.18.42,2.34,1.27,1.57-.47,1.16-.44-.39-.08.86-.27.59-.2-.17,0,.11,0-.11.2-.5.3.18.41.18.7-1.16.72,1.33.44,1.31.64-.07.88,1.38.15,1.39.35.81.72.63,0,.67.22.67.45a5.1,5.1,0,0,1,.31.52,3.06,3.06,0,0,0-.38,1.72c.28.37.47.69-.22.71.67.57.47.88-1.24.79,1.44.66,1.36,1-.24,1.24,1.53.37,1.52.69.88,1.09.63.16.62.4.46.68a1,1,0,0,1,.14.69,1.2,1.2,0,0,1-.93,1.33,1.53,1.53,0,0,1,.87,1.56l0,1.44c0,.47,0,1-.88,1.14,1,.57,1.16.83.56.94.75.39.61.79,0,1,.38.73.33,1.25-.52,1.67a3.25,3.25,0,0,1,1.4,2.11c-.35-.18-.54-.08-.64.16a3.45,3.45,0,0,0-.1,1c0,.39,0,.77,0,1.16s0,.77-.4.86c.39.68.37,1.08-.54,1.26.91.58.9.95.88,1.34s0,.91,0,1.36v5.36c-.11-.49-.23-1-.33-1.47-.06-.24-.12-.49-.16-.73a1.76,1.76,0,0,1-.05-.67c-.15-.3-.22-.54-.1-.72a1.65,1.65,0,0,1-.34-.8c-.08-.33-.15-.65-.22-1a2.51,2.51,0,0,1-.1-.91,2.23,2.23,0,0,1-.26-1,2.13,2.13,0,0,1-.2-.62c0-.2-.09-.4-.14-.6-.08-.4-.17-.81-.26-1.21-.17-.8-.34-1.61-.52-2.41a2.45,2.45,0,0,0-1.74-2.15,1.07,1.07,0,0,1,1.12-.51c-.48-.66-.46-1,.18-1.19a2,2,0,0,1-1.05-1.16c-.24-.37-.54-.8-.92-1.3,1.1.08.92-.9.73-1.86-.1-.48-.19-1,.41-1-.78-.86-.88-1.34-.57-1.93A1.87,1.87,0,0,1,36.14,96c0-.24-.09-.48-.13-.72s-.09-.48-.13-.72c-.09-.47-.18-1,.22-1.28-.65-.56-.83-1,.17-1-1.18-.68-1.16-1,.21-1.14-1.37-.5-1.42-.81-.38-1-1.18-.45-1.3-.82-1.2-1.24a1.47,1.47,0,0,1-.17-.8,7.87,7.87,0,0,0-.16-1.13,2.32,2.32,0,0,0-.21-.8c-.14-.27-.38-.52.27-.51-1.52-.53-2.17-.76.22-.34-2.68-.88-2.22-1.09-1.08-1.38-.47-.15-.28-.38-.22-.62.12-.48-.25-1-.95-1.69,1.21,0,1.14-.51,1-1a3.66,3.66,0,0,0-.41-1.15,10.18,10.18,0,0,0,0-1.1c-.07-.37-.19-.73.58-1.09a4.73,4.73,0,0,1-1.29-.66c-.29-.23-.48-.47-.28-.64-.75-.3-1-.56.42-.59-2.15-.53-2.57-.79.31-1-2.77-.05-2.3,0,.21.06-1.74-.07-1.43-.07.17,0-.92-.29-.71-.53.46-.33-.6-.4-.8-.69-.58-1s.6-.54,1.66-.91c-2.18-.16-2.23-.69-2.28-1.23s-.07-.8-.1-1.2a4.67,4.67,0,0,1,0-1.18c-.12-.43-.15-.82.81-1.29-1-.34-1-.74-.72-1.2a.78.78,0,0,1-.28-1c-.33-.4-.52-.73.84-.9-2.07-.46-2.6-.74.38-1.14-2.64-.42-2.1-.89-.37-1.71-1.36-.11-1.55-.53-1.82-1a2.61,2.61,0,0,0,.46-1.1c.07-.39.06-.81,1.52-.83-1.49-.94-1.5-1.46-1.1-2.36-.5-.09-.58-.52-.73-.84a.89.89,0,0,0-.72-.55,5.73,5.73,0,0,1,1.57-3C31.29,51,31,50.56,31.19,50c-1.42.17-2.09.17-1-.3-1.06.13-1.1-.09-.59-.42-.33-.17-.11-.44,1-.81-.73-.16-.55-.41.34-.84-.58-.06-.45-.29-.29-.54s.14-.43.21-.65a5,5,0,0,0,.14-.65,1.51,1.51,0,0,1,.75-1.47c-1,0-1.13-.17.23-.79-1.37.15-1.27-.09-.36-.61q-1.86.14-1.26-.48c-1,0-1.2-.23-.43-.83-.31.27.28,0,.9-.28a12.37,12.37,0,0,0,.9-.94,2.32,2.32,0,0,1,.62-1.65c-.6-.33-.69-.92-.82-1.58a3.59,3.59,0,0,0,.72-1.74c.06-.37.11-.78,1.29-1.17-1.33-.31-1.53-.69,1.58-1.45-3-.09-2.76-.63.52-2.29-3.19.68-3.37.39-2.56-.73-.74.28-.5-.13-.17-.24-.18-.24-.13-.53.22-.73-.29-.26-.29-.43.37-.69-.6-.27-.54-.63,0-1.29-.44,0-.41-.34-.37-.64A2.2,2.2,0,0,0,33,25.05c-.13-.2-.38-.17-.79.17.25-.69.47-1.31.65-1.88A2.55,2.55,0,0,1,34,21.72c-.58-.4-.51-.83,1-1.9-1.43.31-1.45,0-1.37-.43a.58.58,0,0,1-.3-.44,1.83,1.83,0,0,1-.08-.57c-.26-.09-.48-.18-.43-.4-.45,0-.63-.1-.44-.44-.14,0,.09-.19.35-.42l.54-.57a4.92,4.92,0,0,0,.8-1.18c.18-.4.29-.82.53-1.32a2.45,2.45,0,0,1,.11-1.68A3,3,0,0,1,34,10.7c1.25.74,1.48-.62,1.56-3.55.21,0,.38-.29.53-.83a12.1,12.1,0,0,1,.71-2.19c-.21-.29-.11-.75,0-1.22C37,2,37.17,1,37.38,0Z"/>
            <path class="cls-1"
                  d="M56.61,12.8c.26,1.14.5,2.27.72,3.33s.42,2.28.8,2.19c0,2.31.2,3.38,1.32,2.7a1.19,1.19,0,0,1-.37.71c.11.35.06.58-.71.49.67.78.65,1.15-.82.9,1.1.58,1.34.86.61.93.82.36.69.51.19.64,1.12.33,1.34.62,1.42,1a5.16,5.16,0,0,1,1.29.82,2.78,2.78,0,0,1-1.27.45c.2.45.05.72-.55.89a1.89,1.89,0,0,1,.5,1.28,15.46,15.46,0,0,0,1,3.3c-.25-.17-.43-.2-.56-.14s-.19.24-.3.44a.74.74,0,0,1-.34.88,2,2,0,0,1,.61,1.33,2.43,2.43,0,0,0,.33,1.47,4.7,4.7,0,0,0-.11.88,4.91,4.91,0,0,0,.05.85c.08.32.17.63-.9.68,1.06.46,1,.7.3,1,.68.31.72.63.78.92a3.72,3.72,0,0,0,.21.77c.09.23.2.41,0,.33a2.14,2.14,0,0,1,.08,1c-.05.28-.2.53-.85.6.88.56.92.92-1.07.55,2.27,1,2.49,1.24-.58.68,3.78.92,4.25,1,.43,0,4.24,1.24,4.06,1.44.34,1.47,3.39.35,3.24.57,1.18.9,1.66.22,1.47.58,1.12.85a.39.39,0,0,1-.11.54,2.62,2.62,0,0,1-1.33.31c1.54.59,1.64,1,1.6,1.39a2.63,2.63,0,0,1,.5.5,2.26,2.26,0,0,1,.37.56c.25.24.44.45-.06.56.9.34,1.12.57.78.83.29,0,0-.06-.36-.06a2.73,2.73,0,0,0-.46.06,1.58,1.58,0,0,0-.82.39c-.08.1-.15.21-.55.19.22.26.11.38-.88.27,1,.42,1,.6-.44.64,1.56.34,1.58.54.52.83,1.13.12,1.19.35.7.61.62.2.69.45.68.71-.18,0-.36.17-.49.43a6.46,6.46,0,0,0-.29,2.26c0,.66-.05,1.31.65,1.3-.38.66-.57,1.16-.31,1.71.13.28.37.56.06.81.7.22,1,.41.28.56,1.27.27,1.45.49.58.82.49-.25-.17-.2-.72-.07a1.23,1.23,0,0,0-.7.59,2.09,2.09,0,0,0-.17.83,1.26,1.26,0,0,1-.68,1.22c.58.3.56.51-.36.67.64.23.38.39-.42.51.76.32,1,.59.84.87.3.22.22.46.08.72a2,2,0,0,1,.12,1.21,1.85,1.85,0,0,0,.41,1.67c.26.26.66.5-.11.71.71.36.24.69-.08,1a2.36,2.36,0,0,0-.7,1.81c-.09.41-.16.84-.22,1.26s-.13.86,0,.47c.63.56.4.83-1.67.91,1.8.41,1.74.63-.63,1,2.5.11,2.66.3.65,1,2.4-.2,2.61,0,1.83.78,1.35-.51,1-.44-.33,0,.76-.29.52-.22-.14,0,.09,0-.12.17-.45.28.11.3.08.53-1.05.69,1.07.21,1,.36-.16.71,1.15,0,1.14.11.61.47.53,0,.54.09.51.27a2.22,2.22,0,0,1,.21.37,2.83,2.83,0,0,0-.52,1.39c.2.26.32.48-.27.6.51.35.3.6-1.17.83,1.17.28,1.06.53-.36,1,1.28,0,1.23.27.63.71.52,0,.49.21.31.46a.66.66,0,0,1,0,.52c-.07.38-.15.77-1,1.26.71.29.63.67.56,1.06s-.16.77-.23,1.15a1.39,1.39,0,0,1-1,1.16c.83.18.93.35.37.61.62.11.44.46-.13.78.23.49.12.91-.74,1.53.81.26.86.71,1,1.27a.6.6,0,0,0-.63.35,3.5,3.5,0,0,0-.28.88c-.07.32-.14.65-.22,1a1.19,1.19,0,0,1-.55.89c.25.4.17.73-.79,1.32.81.06.73.38.63.72s-.16.76-.26,1.15c-.37,1.56-.77,3.11-1.19,4.68,0-.36,0-.72,0-1.09,0-.18,0-.36,0-.55a1.71,1.71,0,0,1,.1-.57.48.48,0,0,1,.07-.58.51.51,0,0,1-.19-.51c0-.24,0-.49,0-.74a1.81,1.81,0,0,1,.1-.75,1.1,1.1,0,0,1-.05-.76,1.08,1.08,0,0,1-.08-.44c0-.16,0-.32,0-.47,0-.32,0-.63,0-.94,0-.63,0-1.26,0-1.89s0-1.26-1.28-1.17A2.29,2.29,0,0,1,52.7,98c-.33-.39-.25-.67.4-1.11-.63-.08-.69-.34-.79-.63a7.94,7.94,0,0,0-.63-.82c1-.33,1-1.1,1-1.88a.93.93,0,0,1,.57-1A1,1,0,0,1,53.06,91c-.39-.19-.39-.58-.39-1,0-.2,0-.39,0-.59v-.58a1.31,1.31,0,0,1,.39-1.15c-.49-.34-.59-.66.29-.88-.94-.34-.87-.63.34-1-1.11-.17-1.11-.44-.19-.81-1-.18-1-.47-.86-.85-.11-.12-.06-.37,0-.66a5.86,5.86,0,0,0,0-.94,1.57,1.57,0,0,0-.07-.65c-.09-.21-.25-.4.29-.47-1.22-.25-1.73-.37.23-.32-2.15-.4-1.73-.66-.74-1-.38-.07-.19-.29-.11-.5.16-.43-.09-.85-.6-1.36,1-.09,1-.53,1-.92a2.52,2.52,0,0,0-.21-.95,6.54,6.54,0,0,0,.12-.94c0-.31-.07-.61.59-1a2.91,2.91,0,0,1-1-.5c-.21-.18-.35-.38-.16-.53-.58-.23-.8-.45.39-.51-1.7-.39-2-.63.36-.85-2.25,0-1.87,0,.16,0-1.41,0-1.15,0,.14,0-.72-.22-.52-.43.41-.29-.46-.32-.59-.56-.39-.8s.54-.46,1.42-.76c-1.75-.14-1.74-.59-1.74-1s0-.67,0-1a4.71,4.71,0,0,1,.08-1c-.06-.35-.06-.69.75-1-.79-.33-.79-.67-.49-1a.68.68,0,0,1-.16-.83c-.24-.35-.37-.65.73-.69-1.62-.53-2-.82.37-.91-2.07-.57-1.61-.93-.19-1.45-1.08-.22-1.2-.6-1.39-1a2.2,2.2,0,0,0,.43-.88c.07-.32.08-.67,1.24-.5-1.13-1-1.12-1.42-.76-2.11-.39-.14-.44-.51-.54-.8a.87.87,0,0,0-.54-.58,3.92,3.92,0,0,1,1.34-2.27c-.81-.71-1-1.19-.86-1.6-1.13-.15-1.66-.3-.77-.46-.84-.11-.87-.31-.45-.49-.26-.21-.08-.4.83-.46-.57-.29-.43-.47.29-.63-.46-.18-.35-.35-.22-.52s.12-.33.18-.5a2.36,2.36,0,0,0,.12-.51,1,1,0,0,1,.62-1c-.82-.24-.89-.44.2-.6-1.09-.22-1-.41-.28-.61-1-.25-1.31-.51-1-.74-.8-.29-.95-.55-.33-.83-.25.13.22.12.72,0a6.07,6.07,0,0,0,.72-.53,1.45,1.45,0,0,1,.51-1.2,2.41,2.41,0,0,1-.66-1.57,2,2,0,0,0,.57-1.23c0-.28.08-.61,1-.54-1.07-.71-1.24-1.08,1.25-.67-2.44-1.08-2.22-1.47.41-1.68-2.57-.54-2.72-.89-2.09-1.51-.59,0-.41-.3-.14-.27-.14-.26-.11-.49.17-.51-.24-.34-.24-.47.29-.43-.5-.46-.46-.75,0-1.08a.58.58,0,0,1-.32-.68,2.38,2.38,0,0,0-.15-1c-.11-.23-.32-.31-.64-.21.18-.46.35-.89.48-1.29s.23-.76.88-.84c-.5-.6-.46-.93.73-1.13-1.18-.4-1.2-.68-1.16-1a1.11,1.11,0,0,1-.26-.52,2,2,0,0,1-.09-.52c-.22-.2-.41-.4-.38-.56-.38-.23-.53-.42-.39-.61-.12-.06.07-.11.27-.17a4,4,0,0,0,.43-.19,1.56,1.56,0,0,0,.62-.57c.14-.24.21-.53.39-.83a1.82,1.82,0,0,1,0-1.34,5,5,0,0,1-.68-1.8c1.11,1.35,1.24.34,1.13-2,.18.16.3,0,.4-.37a4.21,4.21,0,0,1,.48-1.36,1.5,1.5,0,0,1-.1-1C56.39,14.14,56.49,13.46,56.61,12.8Z"/>
            <path class="cls-1"
                  d="M74.53,33c.22.78.41,1.53.59,2.24s.35,1.5.64,1.57c0,1.38.17,2.07,1,2-.06.14-.11.28-.29.31.09.24,0,.37-.55.09.52.66.5.87-.64.32.86.65,1,.88.47.72.64.45.54.5.15.44.87.5,1,.74,1.1,1a7.69,7.69,0,0,1,1,.82,2.17,2.17,0,0,1-1-.05c.15.31,0,.44-.43.39a1.4,1.4,0,0,1,.37.89,10.42,10.42,0,0,0,.75,2.22.66.66,0,0,0-.43-.21c-.1,0-.15.1-.24.2s.05.38-.28.46a1.46,1.46,0,0,1,.46.93,1.48,1.48,0,0,0,.23,1,2.42,2.42,0,0,0-.1.51,2.39,2.39,0,0,0,0,.53c0,.21.12.41-.71.24.81.48.76.62.22.64.52.31.54.52.58.7a2.36,2.36,0,0,0,.14.51c.07.15.15.28,0,.21a1.07,1.07,0,0,1,0,.6c0,.17-.17.29-.67.23.66.49.69.72-.84.17,1.72,1,1.89,1.15-.46.33,2.88,1.16,3.24,1.3.33.09,3.23,1.44,3.09,1.5.23,1,2.59.73,2.47.83.88.73,1.27.38,1.11.57.83.69a.19.19,0,0,1-.09.31,2.27,2.27,0,0,1-1,0c1.16.57,1.23.8,1.18,1.06a2.59,2.59,0,0,1,.37.37,1.72,1.72,0,0,1,.27.39c.19.18.32.33-.06.34.68.31.84.48.57.59.22,0,0,0-.28-.07a2.25,2.25,0,0,0-.35,0,1.23,1.23,0,0,0-.64.15c-.07.05-.13.11-.43.05.16.19.07.25-.69.07.72.37.77.48-.36.34,1.19.39,1.19.51.37.58.87.2.9.34.51.45.48.19.52.35.5.51a.47.47,0,0,0-.39.21,3.25,3.25,0,0,0-.32,1.37c0,.41-.08.81.46.87-.32.37-.49.67-.32,1,.09.18.26.37,0,.5.53.19.77.32.19.37,1,.25,1.09.4.4.54.4-.12-.12-.13-.55-.09a1,1,0,0,0-.57.32,1.27,1.27,0,0,0-.16.51.78.78,0,0,1-.59.73c.43.22.41.35-.31.4.48.17.27.26-.35.3.57.24.74.41.6.58.22.16.15.3,0,.46a1,1,0,0,1,0,.76,1,1,0,0,0,.23,1.06c.18.17.48.32-.13.44.53.24.15.43-.11.63a1.39,1.39,0,0,0-.65,1.12c-.1.26-.18.53-.26.8s-.15.54,0,.29c.46.35.27.51-1.36.58,1.39.25,1.33.38-.56.64,2,0,2.07.15.45.62,1.9-.17,2.05,0,1.38.45,1.1-.34.82-.29-.25,0,.61-.2.42-.15-.12,0,.08,0-.1.11-.37.19.07.19,0,.33-.87.47.83.1.79.19-.18.45.91-.06.89,0,.45.28.42,0,.42,0,.39.15s.09.15.14.22a1.93,1.93,0,0,0-.51.91c.14.15.22.28-.26.39.38.19.2.36-1,.58.9.12.8.28-.37.69,1-.07,1,.09.45.41.42,0,.37.1.21.27.08.07,0,.2,0,.32s-.18.5-.9.88c.55.13.46.37.37.63s-.19.5-.28.75-.19.5-.88.83c.66,0,.73.12.25.35.5,0,.32.24-.17.51.15.29,0,.56-.74,1.07.65.06.65.33.69.67a.75.75,0,0,0-.55.31,2.59,2.59,0,0,0-.3.6l-.27.65a1.19,1.19,0,0,1-.54.65c.18.21.08.43-.78,1,.68-.1.58.12.46.35s-.2.51-.32.78c-.47,1.06-.95,2.13-1.48,3.23l.09-.68c0-.12,0-.24.05-.36a1,1,0,0,1,.14-.38c-.06-.09-.06-.2.12-.39-.16,0-.14-.16-.11-.29s0-.31,0-.47a1.11,1.11,0,0,1,.16-.51.55.55,0,0,1,0-.48.35.35,0,0,1,0-.27l0-.3.09-.61c0-.41.11-.82.16-1.23s.11-.82-1-.57a2.72,2.72,0,0,1,1.07-.78c-.24-.21-.14-.4.43-.78-.5,0-.53-.13-.58-.31a3.06,3.06,0,0,0-.44-.46,1.38,1.38,0,0,0,1-1.37.79.79,0,0,1,.55-.74c-.42-.28-.4-.54,0-1-.29-.09-.26-.35-.23-.61s0-.26,0-.38,0-.26,0-.39a1,1,0,0,1,.41-.79c-.37-.19-.42-.4.3-.6-.72-.16-.64-.36.35-.68-.87,0-.84-.23-.08-.52-.75-.07-.76-.26-.62-.52-.08-.07,0-.24,0-.44a4,4,0,0,0,.08-.62.89.89,0,0,0,0-.43c-.05-.14-.17-.26.26-.32-.94-.13-1.33-.2.21-.22-1.67-.21-1.32-.39-.5-.67-.3,0-.14-.19-.06-.33s0-.57-.37-.9c.8-.08.83-.37.84-.63a1.4,1.4,0,0,0-.11-.63,3.15,3.15,0,0,0,.16-.62c0-.21,0-.41.53-.63a2,2,0,0,1-.74-.34c-.16-.12-.25-.26-.1-.36-.43-.16-.59-.31.34-.33-1.29-.28-1.52-.46.33-.56-1.75,0-1.45,0,.12,0-1.09,0-.89,0,.12,0-.55-.16-.38-.3.33-.18-.33-.22-.42-.39-.25-.54s.44-.29,1.15-.46c-1.35-.14-1.32-.44-1.29-.74s0-.45.07-.67a2.48,2.48,0,0,1,.12-.66c0-.23,0-.46.63-.65-.59-.26-.57-.48-.32-.71a.39.39,0,0,1-.08-.55c-.17-.24-.25-.45.59-.41-1.22-.45-1.51-.68.33-.57-1.56-.52-1.19-.74-.07-1-.83-.23-.9-.49-1-.8a1.19,1.19,0,0,0,.37-.54c.07-.2.09-.43,1-.22-.83-.73-.8-1-.5-1.45-.29-.13-.31-.38-.39-.58a.68.68,0,0,0-.39-.44c.29-.59.49-1.08,1.12-1.34-.6-.56-.76-.91-.61-1.15-.86-.24-1.26-.41-.57-.4-.64-.19-.66-.33-.33-.39-.2-.17-.05-.27.65-.19-.43-.27-.31-.37.24-.37-.35-.19-.26-.28-.15-.38s.1-.2.15-.3a3,3,0,0,0,.11-.32c0-.22,0-.47.5-.59-.62-.28-.67-.42.17-.36-.83-.31-.77-.42-.2-.44-.75-.32-1-.54-.75-.64-.6-.32-.71-.52-.23-.6-.2.05.16.12.55.13a4,4,0,0,0,.56-.22.71.71,0,0,1,.42-.69,1.82,1.82,0,0,1-.48-1.14c.23-.08.36-.34.46-.68,0-.18.08-.38.8-.16-.81-.65-.93-.92,1-.18-1.85-1.16-1.69-1.38.34-1-2-.86-2.07-1.12-1.58-1.39-.46-.15-.31-.28-.11-.19-.11-.2-.08-.34.14-.3-.19-.26-.18-.35.22-.21-.37-.4-.34-.57,0-.69-.27-.21-.25-.36-.23-.5a1.56,1.56,0,0,0-.11-.7.54.54,0,0,0-.5-.28,7.21,7.21,0,0,0,.38-.71c.1-.21.19-.42.68-.31-.38-.5-.35-.7.58-.53-.92-.55-.93-.73-.9-.92a1,1,0,0,1-.2-.4,1.15,1.15,0,0,1-.07-.35c-.17-.19-.32-.36-.3-.45-.29-.25-.41-.42-.3-.5-.09-.07,0,0,.21,0h.33a.66.66,0,0,0,.48-.18c.11-.11.16-.27.3-.41a.93.93,0,0,1,0-.83,4.28,4.28,0,0,1-.54-1.33c.87,1.18,1,.58.87-.91.14.16.24.09.31-.09a1.28,1.28,0,0,1,.37-.68.8.8,0,0,1-.09-.65C74.36,33.68,74.44,33.31,74.53,33Z"/>
            <path class="cls-1"
                  d="M25.1,172a22.61,22.61,0,0,1-10.91,2.43H.64a.77.77,0,0,1-.53-.17.34.34,0,0,1-.07-.42L14.5,141a1,1,0,0,1,.35-.42.91.91,0,0,1,.49-.17h8.23c3.28,0,5.62.78,7.2,2.34s2.16,3.88,1.61,7a9.16,9.16,0,0,1-5.35,7c-.19.1-.23.2-.13.29a7.42,7.42,0,0,1,3.34,8.08A9.48,9.48,0,0,1,25.1,172Zm-5.53-25.51-2.65,7.64q-.08.24.21.24h2.11a5.52,5.52,0,0,0,3.4-1,5.23,5.23,0,0,0,1.89-2.95,3.72,3.72,0,0,0-.16-3.07,2.77,2.77,0,0,0-2.53-1.07H19.92A.34.34,0,0,0,19.57,146.51Zm-.45,20.83A5.75,5.75,0,0,0,21.28,164a4.11,4.11,0,0,0-.28-3.41,3.08,3.08,0,0,0-2.79-1.26H15.43a.36.36,0,0,0-.39.24c-1.21,3.47-1.81,5.2-3,8.67,0,.16,0,.24.26.24h3A6.35,6.35,0,0,0,19.12,167.34Z"/>
            <path class="cls-1"
                  d="M37.39,172.09a7.37,7.37,0,0,1-2.85-7.33c1.25-9.52,1.88-14.28,3.14-23.8a.72.72,0,0,1,.22-.42.68.68,0,0,1,.45-.17h5.76a.57.57,0,0,1,.41.17.6.6,0,0,1,.16.42c-.39,9.79-.58,14.69-1,24.48a3.09,3.09,0,0,0,1,2.53,4,4,0,0,0,2.83,1,3.9,3.9,0,0,0,2.8-1,3.14,3.14,0,0,0,1-2.53c-.36-9.79-.54-14.69-.89-24.48a.55.55,0,0,1,.15-.42.57.57,0,0,1,.41-.17h5.77a.67.67,0,0,1,.44.17.67.67,0,0,1,.22.42c1.24,9.52,1.85,14.28,3.08,23.8a7.38,7.38,0,0,1-2.87,7.33c-2.38,1.83-5.8,2.75-10.07,2.75S39.77,173.92,37.39,172.09Z"/>
            <path class="cls-1"
                  d="M70.34,172.33a9.4,9.4,0,0,1-5-6.69c-1.17-6.58-1.75-9.87-2.91-16.46A7.59,7.59,0,0,1,64,142.49c1.48-1.67,3.61-2.51,6.55-2.51a14.23,14.23,0,0,1,8.12,2.54,15.39,15.39,0,0,1,5.74,6.71l.82,1.85a.41.41,0,0,1,0,.42.48.48,0,0,1-.41.17H78.16a1,1,0,0,1-.54-.17.8.8,0,0,1-.34-.42l-.68-1.94a5.07,5.07,0,0,0-1.67-2.37,4.09,4.09,0,0,0-2.58-.9,2.18,2.18,0,0,0-2,.9,2.84,2.84,0,0,0-.22,2.37l4.47,16.55a4,4,0,0,0,1.71,2.36,5.44,5.44,0,0,0,3.11.9,3.33,3.33,0,0,0,2.63-.9,2.27,2.27,0,0,0,.26-2.36L81,161.79a.38.38,0,0,0-.4-.24H77.81a1.12,1.12,0,0,1-.59-.17.74.74,0,0,1-.35-.42c-.53-1.73-.8-2.59-1.33-4.33a.38.38,0,0,1,.09-.41.58.58,0,0,1,.45-.17h10.6a1.14,1.14,0,0,1,.58.17,1,1,0,0,1,.4.41l4,9c1.23,2.79,1,5-.92,6.69s-5.11,2.51-9.42,2.51A21.84,21.84,0,0,1,70.34,172.33Z"/>
            <line class="cls-1" x1="8.61" y1="179.7" x2="83.08" y2="179.7"/>
            <rect class="cls-1" x="8.61" y="179.2" width="74.47" height="1"/>
            <path class="cls-1"
                  d="M15.82,194.7c-.07,0-.1-.07-.07-.12,1.69-3.87,2.55-5.81,4.25-9.68a.24.24,0,0,1,.16-.12.94.94,0,0,1,.3-.05h5.79a10.51,10.51,0,0,1,4.48.76c1.05.5,1.5,1.18,1.3,2-.43,1.78-.64,2.68-1.07,4.47-.2.84-1,1.51-2.5,2a17.58,17.58,0,0,1-5.62.76H16.12A.62.62,0,0,1,15.82,194.7Zm5.9-1.68h1.64a4.36,4.36,0,0,0,1.7-.33,1.57,1.57,0,0,0,.91-.83l1.3-4.21a.7.7,0,0,0-.29-.86,2.55,2.55,0,0,0-1.42-.32H24.12c-.11,0-.18,0-.2.07L21.57,193C21.55,193,21.6,193,21.72,193Z"/>
            <path class="cls-1"
                  d="M43.38,194.6l-.5-1.38c0-.05-.06-.07-.21-.07H38.13c-.15,0-.22,0-.23.06-.33.55-.51.83-.85,1.39q-.06.15-.51.15H32.2c-.33,0-.44-.06-.34-.18a98.76,98.76,0,0,0,6.83-9.68c.06-.11.21-.16.44-.16h4.33c.23,0,.37.05.4.16a76.46,76.46,0,0,0,4.82,9.68l0,.05c0,.09-.14.13-.41.13H43.86Q43.41,194.75,43.38,194.6Zm-4.3-3h3.06c.1,0,.14,0,.15-.07-.48-1.48-.71-2.22-1.13-3.7a.1.1,0,0,0-.09,0,.14.14,0,0,0-.11,0c-.78,1.48-1.19,2.22-2,3.7C38.89,191.57,38.94,191.59,39.08,191.59Z"/>
            <path class="cls-1"
                  d="M53.75,194.69c-.09,0-.14-.08-.14-.12l-.3-3.73-.05-.08c-2.15-2.33-3.14-3.5-5-5.83a.09.09,0,0,1,0-.07c0-.09.12-.13.35-.13h3.94a.57.57,0,0,1,.46.14c.92,1.37,1.39,2.06,2.39,3.42a.14.14,0,0,0,.11.05.11.11,0,0,0,.09-.05c.68-1.36,1-2,1.59-3.42.05-.09.19-.14.42-.14h4a.76.76,0,0,1,.29.05c.08,0,.1.08.07.15a54.63,54.63,0,0,1-3.64,5.83l0,.08c.23,1.49.34,2.24.57,3.73,0,0,0,.09-.11.12a.87.87,0,0,1-.31.05H54.07A1,1,0,0,1,53.75,194.69Z"/>
            <path class="cls-1"
                  d="M68.68,194.54a8.88,8.88,0,0,1-2.76-.93,2.26,2.26,0,0,1-1.2-1.36l-.11-.46s0-.09.09-.12a.63.63,0,0,1,.29,0h4.09a.83.83,0,0,1,.32,0,.24.24,0,0,1,.16.12c0,.14.07.21.11.36a1.23,1.23,0,0,0,.79.71,3.89,3.89,0,0,0,1.52.28,2.91,2.91,0,0,0,1.35-.26c.33-.17.44-.4.34-.68a1.54,1.54,0,0,0-1-.73c-.53-.21-1.56-.51-3-.91-1.27-.35-2.3-.65-3.09-.92a9.25,9.25,0,0,1-2.07-1,2.27,2.27,0,0,1-1.08-1.36c-.19-.81.23-1.46,1.25-1.95a10.06,10.06,0,0,1,4.25-.73,14.11,14.11,0,0,1,4.85.76,4.29,4.29,0,0,1,2.62,2l.15.35s0,.09-.07.12a.6.6,0,0,1-.26,0H72.34a.94.94,0,0,1-.3,0c-.1,0-.15-.07-.17-.12l-.14-.39a1.36,1.36,0,0,0-.77-.71,3.74,3.74,0,0,0-1.46-.26,2.2,2.2,0,0,0-1.18.25.55.55,0,0,0-.27.69c.09.29.38.54.88.76a24.33,24.33,0,0,0,2.82.92c1.57.43,2.79.78,3.63,1.05a10.11,10.11,0,0,1,2.09.91,2.69,2.69,0,0,1,1.14,1.19c.37.84,0,1.51-1.11,2a12.64,12.64,0,0,1-4.93.75A20.83,20.83,0,0,1,68.68,194.54Z"/>
        </g>
    </g>
</svg>